  0
SECTION
  2
HEADER
  9
$ACADVER
  1
AC1014
  9
$HANDSEED
  5
FFFF
  9
$MEASUREMENT
 70
     1
  0
ENDSEC
  0
SECTION
  2
TABLES
  0
TABLE
  2
VPORT
  5
8
330
0
100
AcDbSymbolTable
 70
     4
  0
VPORT
  5
2E
330
8
100
AcDbSymbolTableRecord
100
AcDbViewportTableRecord
  2
*ACTIVE
 70
     0
 10
0.0
 20
0.0
 11
1.0
 21
1.0
 12
210.0
 22
148.5
 13
0.0
 23
0.0
 14
10.0
 24
10.0
 15
10.0
 25
10.0
 16
0.0
 26
0.0
 36
1.0
 17
0.0
 27
0.0
 37
0.0
 40
341.0
 41
1.24
 42
50.0
 43
0.0
 44
0.0
 50
0.0
 51
0.0
 71
     0
 72
   100
 73
     1
 74
     3
 75
     0
 76
     0
 77
     0
 78
     0
  0
ENDTAB
  0
TABLE
  2
LTYPE
  5
5
330
0
100
AcDbSymbolTable
 70
     1
  0
LTYPE
  5
14
330
5
100
AcDbSymbolTableRecord
100
AcDbLinetypeTableRecord
  2
BYBLOCK
 70
     0
  3

 72
    65
 73
     0
 40
0.0
  0
LTYPE
  5
15
330
5
100
AcDbSymbolTableRecord
100
AcDbLinetypeTableRecord
  2
BYLAYER
 70
     0
  3

 72
    65
 73
     0
 40
0.0
  0
LTYPE
  5
16
330
5
100
AcDbSymbolTableRecord
100
AcDbLinetypeTableRecord
  2
CONTINUOUS
 70
     0
  3
Solid line
 72
    65
 73
     0
 40
0.0
  0
ENDTAB
  0
TABLE
  2
LAYER
  5
2
100
AcDbSymbolTable
 70
4
  0
LAYER
  5
50
100
AcDbSymbolTableRecord
100
AcDbLayerTableRecord
  2
0
 70
0
  6
CONTINUOUS
  0
LAYER
  5
51
100
AcDbSymbolTableRecord
100
AcDbLayerTableRecord
  2
Layer_1
 70
0
  6
CONTINUOUS
  0
LAYER
  5
52
100
AcDbSymbolTableRecord
100
AcDbLayerTableRecord
  2
outline
 70
0
  6
CONTINUOUS
  0
LAYER
  5
53
100
AcDbSymbolTableRecord
100
AcDbLayerTableRecord
  2
outline_segments
 70
0
  6
CONTINUOUS
  0
ENDTAB
  0
TABLE
  2
STYLE
  5
3
330
0
100
AcDbSymbolTable
 70
     1
  0
STYLE
  5
11
330
3
100
AcDbSymbolTableRecord
100
AcDbTextStyleTableRecord
  2
STANDARD
 70
     0
 40
0.0
 41
1.0
 50
0.0
 71
     0
 42
2.5
  3
txt
  4

  0
ENDTAB
  0
TABLE
  2
VIEW
  5
6
330
0
100
AcDbSymbolTable
 70
     0
  0
ENDTAB
  0
TABLE
  2
UCS
  5
7
330
0
100
AcDbSymbolTable
 70
     0
  0
ENDTAB
  0
TABLE
  2
APPID
  5
9
330
0
100
AcDbSymbolTable
 70
     2
  0
APPID
  5
12
330
9
100
AcDbSymbolTableRecord
100
AcDbRegAppTableRecord
  2
ACAD
 70
     0
  0
ENDTAB
  0
TABLE
  2
DIMSTYLE
  5
A
330
0
100
AcDbSymbolTable
 70
     1
  0
DIMSTYLE
105
27
330
A
100
AcDbSymbolTableRecord
100
AcDbDimStyleTableRecord
  2
ISO-25
 70
     0
  3

  4

  5

  6

  7

 40
1.0
 41
2.5
 42
0.625
 43
3.75
 44
1.25
 45
0.0
 46
0.0
 47
0.0
 48
0.0
140
2.5
141
2.5
142
0.0
143
0.03937007874016
144
1.0
145
0.0
146
1.0
147
0.625
 71
     0
 72
     0
 73
     0
 74
     0
 75
     0
 76
     0
 77
     1
 78
     8
170
     0
171
     3
172
     1
173
     0
174
     0
175
     0
176
     0
177
     0
178
     0
270
     2
271
     2
272
     2
273
     2
274
     3
340
11
275
     0
280
     0
281
     0
282
     0
283
     0
284
     8
285
     0
286
     0
287
     3
288
     0
  0
ENDTAB
  0
TABLE
  2
BLOCK_RECORD
  5
1
330
0
100
AcDbSymbolTable
 70
     1
  0
BLOCK_RECORD
  5
1F
330
1
100
AcDbSymbolTableRecord
100
AcDbBlockTableRecord
  2
*MODEL_SPACE
  0
BLOCK_RECORD
  5
1B
330
1
100
AcDbSymbolTableRecord
100
AcDbBlockTableRecord
  2
*PAPER_SPACE
  0
ENDTAB
  0
ENDSEC
  0
SECTION
  2
BLOCKS
  0
BLOCK
  5
20
330
1F
100
AcDbEntity
  8
0
100
AcDbBlockBegin
  2
*MODEL_SPACE
 70
     0
 10
0.0
 20
0.0
 30
0.0
  3
*MODEL_SPACE
  1

  0
ENDBLK
  5
21
330
1F
100
AcDbEntity
  8
0
100
AcDbBlockEnd
  0
BLOCK
  5
1C
330
1B
100
AcDbEntity
 67
     1
  8
0
100
AcDbBlockBegin
  2
*PAPER_SPACE
  1

  0
ENDBLK
  5
1D
330
1B
100
AcDbEntity
 67
     1
  8
0
100
AcDbBlockEnd
  0
ENDSEC
  0
SECTION
  2
ENTITIES
  0
LINE
  5
100
100
AcDbEntity
  8
outline_segments
 62
5
100
AcDbLine
 10
109.300004
 20
96.661118
 30
0.0
 11
109.287897
 21
96.182543
 31
0.0
  0
LINE
  5
101
100
AcDbEntity
  8
outline_segments
 62
5
100
AcDbLine
 10
109.287897
 20
96.182543
 30
0.0
 11
109.251984
 21
95.710247
 31
0.0
  0
LINE
  5
102
100
AcDbEntity
  8
outline_segments
 62
5
100
AcDbLine
 10
109.251984
 20
95.710247
 30
0.0
 11
109.192842
 21
95.244820
 31
0.0
  0
LINE
  5
103
100
AcDbEntity
  8
outline_segments
 62
5
100
AcDbLine
 10
109.192842
 20
95.244820
 30
0.0
 11
109.111057
 21
94.786844
 31
0.0
  0
LINE
  5
104
100
AcDbEntity
  8
outline_segments
 62
5
100
AcDbLine
 10
109.111057
 20
94.786844
 30
0.0
 11
109.007210
 21
94.336902
 31
0.0
  0
LINE
  5
105
100
AcDbEntity
  8
outline_segments
 62
5
100
AcDbLine
 10
109.007210
 20
94.336902
 30
0.0
 11
108.881889
 21
93.895583
 31
0.0
  0
LINE
  5
106
100
AcDbEntity
  8
outline_segments
 62
5
100
AcDbLine
 10
108.881889
 20
93.895583
 30
0.0
 11
108.735678
 21
93.463467
 31
0.0
  0
LINE
  5
107
100
AcDbEntity
  8
outline_segments
 62
5
100
AcDbLine
 10
108.735678
 20
93.463467
 30
0.0
 11
108.569159
 21
93.041138
 31
0.0
  0
LINE
  5
108
100
AcDbEntity
  8
outline_segments
 62
5
100
AcDbLine
 10
108.569159
 20
93.041138
 30
0.0
 11
108.382918
 21
92.629184
 31
0.0
  0
LINE
  5
109
100
AcDbEntity
  8
outline_segments
 62
5
100
AcDbLine
 10
108.382918
 20
92.629184
 30
0.0
 11
108.177539
 21
92.228186
 31
0.0
  0
LINE
  5
10a
100
AcDbEntity
  8
outline_segments
 62
5
100
AcDbLine
 10
108.177539
 20
92.228186
 30
0.0
 11
107.953607
 21
91.838731
 31
0.0
  0
LINE
  5
10b
100
AcDbEntity
  8
outline_segments
 62
5
100
AcDbLine
 10
107.953607
 20
91.838731
 30
0.0
 11
107.711706
 21
91.461399
 31
0.0
  0
LINE
  5
10c
100
AcDbEntity
  8
outline_segments
 62
5
100
AcDbLine
 10
107.711706
 20
91.461399
 30
0.0
 11
107.452417
 21
91.096780
 31
0.0
  0
LINE
  5
10d
100
AcDbEntity
  8
outline_segments
 62
5
100
AcDbLine
 10
107.452417
 20
91.096780
 30
0.0
 11
107.176330
 21
90.745452
 31
0.0
  0
LINE
  5
10e
100
AcDbEntity
  8
outline_segments
 62
5
100
AcDbLine
 10
107.176330
 20
90.745452
 30
0.0
 11
106.884027
 21
90.408008
 31
0.0
  0
LINE
  5
10f
100
AcDbEntity
  8
outline_segments
 62
5
100
AcDbLine
 10
106.884027
 20
90.408008
 30
0.0
 11
106.576091
 21
90.085024
 31
0.0
  0
LINE
  5
110
100
AcDbEntity
  8
outline_segments
 62
5
100
AcDbLine
 10
106.576091
 20
90.085024
 30
0.0
 11
106.253108
 21
89.777089
 31
0.0
  0
LINE
  5
111
100
AcDbEntity
  8
outline_segments
 62
5
100
AcDbLine
 10
106.253108
 20
89.777089
 30
0.0
 11
105.915663
 21
89.484786
 31
0.0
  0
LINE
  5
112
100
AcDbEntity
  8
outline_segments
 62
5
100
AcDbLine
 10
105.915663
 20
89.484786
 30
0.0
 11
105.564336
 21
89.208699
 31
0.0
  0
LINE
  5
113
100
AcDbEntity
  8
outline_segments
 62
5
100
AcDbLine
 10
105.564336
 20
89.208699
 30
0.0
 11
105.199716
 21
88.949410
 31
0.0
  0
LINE
  5
114
100
AcDbEntity
  8
outline_segments
 62
5
100
AcDbLine
 10
105.199716
 20
88.949410
 30
0.0
 11
104.822385
 21
88.707509
 31
0.0
  0
LINE
  5
115
100
AcDbEntity
  8
outline_segments
 62
5
100
AcDbLine
 10
104.822385
 20
88.707509
 30
0.0
 11
104.432930
 21
88.483577
 31
0.0
  0
LINE
  5
116
100
AcDbEntity
  8
outline_segments
 62
5
100
AcDbLine
 10
104.432930
 20
88.483577
 30
0.0
 11
104.031931
 21
88.278198
 31
0.0
  0
LINE
  5
117
100
AcDbEntity
  8
outline_segments
 62
5
100
AcDbLine
 10
104.031931
 20
88.278198
 30
0.0
 11
103.619977
 21
88.091957
 31
0.0
  0
LINE
  5
118
100
AcDbEntity
  8
outline_segments
 62
5
100
AcDbLine
 10
103.619977
 20
88.091957
 30
0.0
 11
103.197649
 21
87.925437
 31
0.0
  0
LINE
  5
119
100
AcDbEntity
  8
outline_segments
 62
5
100
AcDbLine
 10
103.197649
 20
87.925437
 30
0.0
 11
102.765533
 21
87.779226
 31
0.0
  0
LINE
  5
11a
100
AcDbEntity
  8
outline_segments
 62
5
100
AcDbLine
 10
102.765533
 20
87.779226
 30
0.0
 11
102.324213
 21
87.653906
 31
0.0
  0
LINE
  5
11b
100
AcDbEntity
  8
outline_segments
 62
5
100
AcDbLine
 10
102.324213
 20
87.653906
 30
0.0
 11
101.874272
 21
87.550059
 31
0.0
  0
LINE
  5
11c
100
AcDbEntity
  8
outline_segments
 62
5
100
AcDbLine
 10
101.874272
 20
87.550059
 30
0.0
 11
101.416296
 21
87.468274
 31
0.0
  0
LINE
  5
11d
100
AcDbEntity
  8
outline_segments
 62
5
100
AcDbLine
 10
101.416296
 20
87.468274
 30
0.0
 11
100.950869
 21
87.409131
 31
0.0
  0
LINE
  5
11e
100
AcDbEntity
  8
outline_segments
 62
5
100
AcDbLine
 10
100.950869
 20
87.409131
 30
0.0
 11
100.478573
 21
87.373219
 31
0.0
  0
LINE
  5
11f
100
AcDbEntity
  8
outline_segments
 62
5
100
AcDbLine
 10
100.478573
 20
87.373219
 30
0.0
 11
99.999998
 21
87.361111
 31
0.0
  0
LINE
  5
120
100
AcDbEntity
  8
outline_segments
 62
5
100
AcDbLine
 10
99.999998
 20
87.361111
 30
0.0
 11
99.521422
 21
87.373219
 31
0.0
  0
LINE
  5
121
100
AcDbEntity
  8
outline_segments
 62
5
100
AcDbLine
 10
99.521422
 20
87.373219
 30
0.0
 11
99.049126
 21
87.409131
 31
0.0
  0
LINE
  5
122
100
AcDbEntity
  8
outline_segments
 62
5
100
AcDbLine
 10
99.049126
 20
87.409131
 30
0.0
 11
98.583699
 21
87.468274
 31
0.0
  0
LINE
  5
123
100
AcDbEntity
  8
outline_segments
 62
5
100
AcDbLine
 10
98.583699
 20
87.468274
 30
0.0
 11
98.125723
 21
87.550059
 31
0.0
  0
LINE
  5
124
100
AcDbEntity
  8
outline_segments
 62
5
100
AcDbLine
 10
98.125723
 20
87.550059
 30
0.0
 11
97.675782
 21
87.653906
 31
0.0
  0
LINE
  5
125
100
AcDbEntity
  8
outline_segments
 62
5
100
AcDbLine
 10
97.675782
 20
87.653906
 30
0.0
 11
97.234462
 21
87.779226
 31
0.0
  0
LINE
  5
126
100
AcDbEntity
  8
outline_segments
 62
5
100
AcDbLine
 10
97.234462
 20
87.779226
 30
0.0
 11
96.802346
 21
87.925437
 31
0.0
  0
LINE
  5
127
100
AcDbEntity
  8
outline_segments
 62
5
100
AcDbLine
 10
96.802346
 20
87.925437
 30
0.0
 11
96.380018
 21
88.091957
 31
0.0
  0
LINE
  5
128
100
AcDbEntity
  8
outline_segments
 62
5
100
AcDbLine
 10
96.380018
 20
88.091957
 30
0.0
 11
95.968064
 21
88.278198
 31
0.0
  0
LINE
  5
129
100
AcDbEntity
  8
outline_segments
 62
5
100
AcDbLine
 10
95.968064
 20
88.278198
 30
0.0
 11
95.567065
 21
88.483577
 31
0.0
  0
LINE
  5
12a
100
AcDbEntity
  8
outline_segments
 62
5
100
AcDbLine
 10
95.567065
 20
88.483577
 30
0.0
 11
95.177610
 21
88.707509
 31
0.0
  0
LINE
  5
12b
100
AcDbEntity
  8
outline_segments
 62
5
100
AcDbLine
 10
95.177610
 20
88.707509
 30
0.0
 11
94.800279
 21
88.949410
 31
0.0
  0
LINE
  5
12c
100
AcDbEntity
  8
outline_segments
 62
5
100
AcDbLine
 10
94.800279
 20
88.949410
 30
0.0
 11
94.435659
 21
89.208699
 31
0.0
  0
LINE
  5
12d
100
AcDbEntity
  8
outline_segments
 62
5
100
AcDbLine
 10
94.435659
 20
89.208699
 30
0.0
 11
94.084332
 21
89.484786
 31
0.0
  0
LINE
  5
12e
100
AcDbEntity
  8
outline_segments
 62
5
100
AcDbLine
 10
94.084332
 20
89.484786
 30
0.0
 11
93.746887
 21
89.777089
 31
0.0
  0
LINE
  5
12f
100
AcDbEntity
  8
outline_segments
 62
5
100
AcDbLine
 10
93.746887
 20
89.777089
 30
0.0
 11
93.423904
 21
90.085024
 31
0.0
  0
LINE
  5
130
100
AcDbEntity
  8
outline_segments
 62
5
100
AcDbLine
 10
93.423904
 20
90.085024
 30
0.0
 11
93.115968
 21
90.408008
 31
0.0
  0
LINE
  5
131
100
AcDbEntity
  8
outline_segments
 62
5
100
AcDbLine
 10
93.115968
 20
90.408008
 30
0.0
 11
92.823665
 21
90.745452
 31
0.0
  0
LINE
  5
132
100
AcDbEntity
  8
outline_segments
 62
5
100
AcDbLine
 10
92.823665
 20
90.745452
 30
0.0
 11
92.547578
 21
91.096780
 31
0.0
  0
LINE
  5
133
100
AcDbEntity
  8
outline_segments
 62
5
100
AcDbLine
 10
92.547578
 20
91.096780
 30
0.0
 11
92.288289
 21
91.461399
 31
0.0
  0
LINE
  5
134
100
AcDbEntity
  8
outline_segments
 62
5
100
AcDbLine
 10
92.288289
 20
91.461399
 30
0.0
 11
92.046388
 21
91.838731
 31
0.0
  0
LINE
  5
135
100
AcDbEntity
  8
outline_segments
 62
5
100
AcDbLine
 10
92.046388
 20
91.838731
 30
0.0
 11
91.822456
 21
92.228186
 31
0.0
  0
LINE
  5
136
100
AcDbEntity
  8
outline_segments
 62
5
100
AcDbLine
 10
91.822456
 20
92.228186
 30
0.0
 11
91.617078
 21
92.629184
 31
0.0
  0
LINE
  5
137
100
AcDbEntity
  8
outline_segments
 62
5
100
AcDbLine
 10
91.617078
 20
92.629184
 30
0.0
 11
91.430836
 21
93.041138
 31
0.0
  0
LINE
  5
138
100
AcDbEntity
  8
outline_segments
 62
5
100
AcDbLine
 10
91.430836
 20
93.041138
 30
0.0
 11
91.264317
 21
93.463467
 31
0.0
  0
LINE
  5
139
100
AcDbEntity
  8
outline_segments
 62
5
100
AcDbLine
 10
91.264317
 20
93.463467
 30
0.0
 11
91.118106
 21
93.895583
 31
0.0
  0
LINE
  5
13a
100
AcDbEntity
  8
outline_segments
 62
5
100
AcDbLine
 10
91.118106
 20
93.895583
 30
0.0
 11
90.992785
 21
94.336902
 31
0.0
  0
LINE
  5
13b
100
AcDbEntity
  8
outline_segments
 62
5
100
AcDbLine
 10
90.992785
 20
94.336902
 30
0.0
 11
90.888939
 21
94.786844
 31
0.0
  0
LINE
  5
13c
100
AcDbEntity
  8
outline_segments
 62
5
100
AcDbLine
 10
90.888939
 20
94.786844
 30
0.0
 11
90.807153
 21
95.244820
 31
0.0
  0
LINE
  5
13d
100
AcDbEntity
  8
outline_segments
 62
5
100
AcDbLine
 10
90.807153
 20
95.244820
 30
0.0
 11
90.748011
 21
95.710247
 31
0.0
  0
LINE
  5
13e
100
AcDbEntity
  8
outline_segments
 62
5
100
AcDbLine
 10
90.748011
 20
95.710247
 30
0.0
 11
90.712098
 21
96.182543
 31
0.0
  0
LINE
  5
13f
100
AcDbEntity
  8
outline_segments
 62
5
100
AcDbLine
 10
90.712098
 20
96.182543
 30
0.0
 11
90.699991
 21
96.661118
 31
0.0
  0
LINE
  5
140
100
AcDbEntity
  8
outline_segments
 62
5
100
AcDbLine
 10
90.699991
 20
96.661118
 30
0.0
 11
90.712098
 21
97.139694
 31
0.0
  0
LINE
  5
141
100
AcDbEntity
  8
outline_segments
 62
5
100
AcDbLine
 10
90.712098
 20
97.139694
 30
0.0
 11
90.748011
 21
97.611990
 31
0.0
  0
LINE
  5
142
100
AcDbEntity
  8
outline_segments
 62
5
100
AcDbLine
 10
90.748011
 20
97.611990
 30
0.0
 11
90.807153
 21
98.077416
 31
0.0
  0
LINE
  5
143
100
AcDbEntity
  8
outline_segments
 62
5
100
AcDbLine
 10
90.807153
 20
98.077416
 30
0.0
 11
90.888939
 21
98.535393
 31
0.0
  0
LINE
  5
144
100
AcDbEntity
  8
outline_segments
 62
5
100
AcDbLine
 10
90.888939
 20
98.535393
 30
0.0
 11
90.992785
 21
98.985334
 31
0.0
  0
LINE
  5
145
100
AcDbEntity
  8
outline_segments
 62
5
100
AcDbLine
 10
90.992785
 20
98.985334
 30
0.0
 11
91.118106
 21
99.426653
 31
0.0
  0
LINE
  5
146
100
AcDbEntity
  8
outline_segments
 62
5
100
AcDbLine
 10
91.118106
 20
99.426653
 30
0.0
 11
91.264317
 21
99.858769
 31
0.0
  0
LINE
  5
147
100
AcDbEntity
  8
outline_segments
 62
5
100
AcDbLine
 10
91.264317
 20
99.858769
 30
0.0
 11
91.430836
 21
100.281098
 31
0.0
  0
LINE
  5
148
100
AcDbEntity
  8
outline_segments
 62
5
100
AcDbLine
 10
91.430836
 20
100.281098
 30
0.0
 11
91.617078
 21
100.693052
 31
0.0
  0
LINE
  5
149
100
AcDbEntity
  8
outline_segments
 62
5
100
AcDbLine
 10
91.617078
 20
100.693052
 30
0.0
 11
91.822456
 21
101.094050
 31
0.0
  0
LINE
  5
14a
100
AcDbEntity
  8
outline_segments
 62
5
100
AcDbLine
 10
91.822456
 20
101.094050
 30
0.0
 11
92.046388
 21
101.483506
 31
0.0
  0
LINE
  5
14b
100
AcDbEntity
  8
outline_segments
 62
5
100
AcDbLine
 10
92.046388
 20
101.483506
 30
0.0
 11
92.288289
 21
101.860837
 31
0.0
  0
LINE
  5
14c
100
AcDbEntity
  8
outline_segments
 62
5
100
AcDbLine
 10
92.288289
 20
101.860837
 30
0.0
 11
92.547578
 21
102.225457
 31
0.0
  0
LINE
  5
14d
100
AcDbEntity
  8
outline_segments
 62
5
100
AcDbLine
 10
92.547578
 20
102.225457
 30
0.0
 11
92.823665
 21
102.576784
 31
0.0
  0
LINE
  5
14e
100
AcDbEntity
  8
outline_segments
 62
5
100
AcDbLine
 10
92.823665
 20
102.576784
 30
0.0
 11
93.115968
 21
102.914228
 31
0.0
  0
LINE
  5
14f
100
AcDbEntity
  8
outline_segments
 62
5
100
AcDbLine
 10
93.115968
 20
102.914228
 30
0.0
 11
93.423904
 21
103.237212
 31
0.0
  0
LINE
  5
150
100
AcDbEntity
  8
outline_segments
 62
5
100
AcDbLine
 10
93.423904
 20
103.237212
 30
0.0
 11
93.746887
 21
103.545147
 31
0.0
  0
LINE
  5
151
100
AcDbEntity
  8
outline_segments
 62
5
100
AcDbLine
 10
93.746887
 20
103.545147
 30
0.0
 11
94.084332
 21
103.837451
 31
0.0
  0
LINE
  5
152
100
AcDbEntity
  8
outline_segments
 62
5
100
AcDbLine
 10
94.084332
 20
103.837451
 30
0.0
 11
94.435659
 21
104.113537
 31
0.0
  0
LINE
  5
153
100
AcDbEntity
  8
outline_segments
 62
5
100
AcDbLine
 10
94.435659
 20
104.113537
 30
0.0
 11
94.800279
 21
104.372826
 31
0.0
  0
LINE
  5
154
100
AcDbEntity
  8
outline_segments
 62
5
100
AcDbLine
 10
94.800279
 20
104.372826
 30
0.0
 11
95.177610
 21
104.614727
 31
0.0
  0
LINE
  5
155
100
AcDbEntity
  8
outline_segments
 62
5
100
AcDbLine
 10
95.177610
 20
104.614727
 30
0.0
 11
95.567065
 21
104.838659
 31
0.0
  0
LINE
  5
156
100
AcDbEntity
  8
outline_segments
 62
5
100
AcDbLine
 10
95.567065
 20
104.838659
 30
0.0
 11
95.968064
 21
105.044038
 31
0.0
  0
LINE
  5
157
100
AcDbEntity
  8
outline_segments
 62
5
100
AcDbLine
 10
95.968064
 20
105.044038
 30
0.0
 11
96.380018
 21
105.230279
 31
0.0
  0
LINE
  5
158
100
AcDbEntity
  8
outline_segments
 62
5
100
AcDbLine
 10
96.380018
 20
105.230279
 30
0.0
 11
96.802346
 21
105.396799
 31
0.0
  0
LINE
  5
159
100
AcDbEntity
  8
outline_segments
 62
5
100
AcDbLine
 10
96.802346
 20
105.396799
 30
0.0
 11
97.234462
 21
105.543010
 31
0.0
  0
LINE
  5
15a
100
AcDbEntity
  8
outline_segments
 62
5
100
AcDbLine
 10
97.234462
 20
105.543010
 30
0.0
 11
97.675782
 21
105.668331
 31
0.0
  0
LINE
  5
15b
100
AcDbEntity
  8
outline_segments
 62
5
100
AcDbLine
 10
97.675782
 20
105.668331
 30
0.0
 11
98.125723
 21
105.772177
 31
0.0
  0
LINE
  5
15c
100
AcDbEntity
  8
outline_segments
 62
5
100
AcDbLine
 10
98.125723
 20
105.772177
 30
0.0
 11
98.583699
 21
105.853962
 31
0.0
  0
LINE
  5
15d
100
AcDbEntity
  8
outline_segments
 62
5
100
AcDbLine
 10
98.583699
 20
105.853962
 30
0.0
 11
99.049126
 21
105.913105
 31
0.0
  0
LINE
  5
15e
100
AcDbEntity
  8
outline_segments
 62
5
100
AcDbLine
 10
99.049126
 20
105.913105
 30
0.0
 11
99.521422
 21
105.949018
 31
0.0
  0
LINE
  5
15f
100
AcDbEntity
  8
outline_segments
 62
5
100
AcDbLine
 10
99.521422
 20
105.949018
 30
0.0
 11
99.999998
 21
105.961125
 31
0.0
  0
LINE
  5
160
100
AcDbEntity
  8
outline_segments
 62
5
100
AcDbLine
 10
99.999998
 20
105.961125
 30
0.0
 11
100.478573
 21
105.949018
 31
0.0
  0
LINE
  5
161
100
AcDbEntity
  8
outline_segments
 62
5
100
AcDbLine
 10
100.478573
 20
105.949018
 30
0.0
 11
100.950869
 21
105.913105
 31
0.0
  0
LINE
  5
162
100
AcDbEntity
  8
outline_segments
 62
5
100
AcDbLine
 10
100.950869
 20
105.913105
 30
0.0
 11
101.416296
 21
105.853962
 31
0.0
  0
LINE
  5
163
100
AcDbEntity
  8
outline_segments
 62
5
100
AcDbLine
 10
101.416296
 20
105.853962
 30
0.0
 11
101.874272
 21
105.772177
 31
0.0
  0
LINE
  5
164
100
AcDbEntity
  8
outline_segments
 62
5
100
AcDbLine
 10
101.874272
 20
105.772177
 30
0.0
 11
102.324213
 21
105.668331
 31
0.0
  0
LINE
  5
165
100
AcDbEntity
  8
outline_segments
 62
5
100
AcDbLine
 10
102.324213
 20
105.668331
 30
0.0
 11
102.765533
 21
105.543010
 31
0.0
  0
LINE
  5
166
100
AcDbEntity
  8
outline_segments
 62
5
100
AcDbLine
 10
102.765533
 20
105.543010
 30
0.0
 11
103.197649
 21
105.396799
 31
0.0
  0
LINE
  5
167
100
AcDbEntity
  8
outline_segments
 62
5
100
AcDbLine
 10
103.197649
 20
105.396799
 30
0.0
 11
103.619977
 21
105.230279
 31
0.0
  0
LINE
  5
168
100
AcDbEntity
  8
outline_segments
 62
5
100
AcDbLine
 10
103.619977
 20
105.230279
 30
0.0
 11
104.031931
 21
105.044038
 31
0.0
  0
LINE
  5
169
100
AcDbEntity
  8
outline_segments
 62
5
100
AcDbLine
 10
104.031931
 20
105.044038
 30
0.0
 11
104.432930
 21
104.838659
 31
0.0
  0
LINE
  5
16a
100
AcDbEntity
  8
outline_segments
 62
5
100
AcDbLine
 10
104.432930
 20
104.838659
 30
0.0
 11
104.822385
 21
104.614727
 31
0.0
  0
LINE
  5
16b
100
AcDbEntity
  8
outline_segments
 62
5
100
AcDbLine
 10
104.822385
 20
104.614727
 30
0.0
 11
105.199716
 21
104.372826
 31
0.0
  0
LINE
  5
16c
100
AcDbEntity
  8
outline_segments
 62
5
100
AcDbLine
 10
105.199716
 20
104.372826
 30
0.0
 11
105.564336
 21
104.113537
 31
0.0
  0
LINE
  5
16d
100
AcDbEntity
  8
outline_segments
 62
5
100
AcDbLine
 10
105.564336
 20
104.113537
 30
0.0
 11
105.915663
 21
103.837451
 31
0.0
  0
LINE
  5
16e
100
AcDbEntity
  8
outline_segments
 62
5
100
AcDbLine
 10
105.915663
 20
103.837451
 30
0.0
 11
106.253108
 21
103.545147
 31
0.0
  0
LINE
  5
16f
100
AcDbEntity
  8
outline_segments
 62
5
100
AcDbLine
 10
106.253108
 20
103.545147
 30
0.0
 11
106.576091
 21
103.237212
 31
0.0
  0
LINE
  5
170
100
AcDbEntity
  8
outline_segments
 62
5
100
AcDbLine
 10
106.576091
 20
103.237212
 30
0.0
 11
106.884027
 21
102.914228
 31
0.0
  0
LINE
  5
171
100
AcDbEntity
  8
outline_segments
 62
5
100
AcDbLine
 10
106.884027
 20
102.914228
 30
0.0
 11
107.176330
 21
102.576784
 31
0.0
  0
LINE
  5
172
100
AcDbEntity
  8
outline_segments
 62
5
100
AcDbLine
 10
107.176330
 20
102.576784
 30
0.0
 11
107.452417
 21
102.225457
 31
0.0
  0
LINE
  5
173
100
AcDbEntity
  8
outline_segments
 62
5
100
AcDbLine
 10
107.452417
 20
102.225457
 30
0.0
 11
107.711706
 21
101.860837
 31
0.0
  0
LINE
  5
174
100
AcDbEntity
  8
outline_segments
 62
5
100
AcDbLine
 10
107.711706
 20
101.860837
 30
0.0
 11
107.953607
 21
101.483506
 31
0.0
  0
LINE
  5
175
100
AcDbEntity
  8
outline_segments
 62
5
100
AcDbLine
 10
107.953607
 20
101.483506
 30
0.0
 11
108.177539
 21
101.094050
 31
0.0
  0
LINE
  5
176
100
AcDbEntity
  8
outline_segments
 62
5
100
AcDbLine
 10
108.177539
 20
101.094050
 30
0.0
 11
108.382918
 21
100.693052
 31
0.0
  0
LINE
  5
177
100
AcDbEntity
  8
outline_segments
 62
5
100
AcDbLine
 10
108.382918
 20
100.693052
 30
0.0
 11
108.569159
 21
100.281098
 31
0.0
  0
LINE
  5
178
100
AcDbEntity
  8
outline_segments
 62
5
100
AcDbLine
 10
108.569159
 20
100.281098
 30
0.0
 11
108.735678
 21
99.858769
 31
0.0
  0
LINE
  5
179
100
AcDbEntity
  8
outline_segments
 62
5
100
AcDbLine
 10
108.735678
 20
99.858769
 30
0.0
 11
108.881889
 21
99.426653
 31
0.0
  0
LINE
  5
17a
100
AcDbEntity
  8
outline_segments
 62
5
100
AcDbLine
 10
108.881889
 20
99.426653
 30
0.0
 11
109.007210
 21
98.985334
 31
0.0
  0
LINE
  5
17b
100
AcDbEntity
  8
outline_segments
 62
5
100
AcDbLine
 10
109.007210
 20
98.985334
 30
0.0
 11
109.111057
 21
98.535393
 31
0.0
  0
LINE
  5
17c
100
AcDbEntity
  8
outline_segments
 62
5
100
AcDbLine
 10
109.111057
 20
98.535393
 30
0.0
 11
109.192842
 21
98.077416
 31
0.0
  0
LINE
  5
17d
100
AcDbEntity
  8
outline_segments
 62
5
100
AcDbLine
 10
109.192842
 20
98.077416
 30
0.0
 11
109.251984
 21
97.611990
 31
0.0
  0
LINE
  5
17e
100
AcDbEntity
  8
outline_segments
 62
5
100
AcDbLine
 10
109.251984
 20
97.611990
 30
0.0
 11
109.287897
 21
97.139694
 31
0.0
  0
LINE
  5
17f
100
AcDbEntity
  8
outline_segments
 62
5
100
AcDbLine
 10
109.287897
 20
97.139694
 30
0.0
 11
109.300004
 21
96.661118
 31
0.0
  0
LINE
  5
180
100
AcDbEntity
  8
outline_segments
 62
7
100
AcDbLine
 10
92.599998
 20
83.863210
 30
0.0
 11
93.052225
 21
83.961829
 31
0.0
  0
LINE
  5
181
100
AcDbEntity
  8
outline_segments
 62
7
100
AcDbLine
 10
93.052225
 20
83.961829
 30
0.0
 11
93.505582
 21
84.054172
 31
0.0
  0
LINE
  5
182
100
AcDbEntity
  8
outline_segments
 62
7
100
AcDbLine
 10
93.505582
 20
84.054172
 30
0.0
 11
93.960024
 21
84.140230
 31
0.0
  0
LINE
  5
183
100
AcDbEntity
  8
outline_segments
 62
7
100
AcDbLine
 10
93.960024
 20
84.140230
 30
0.0
 11
94.415500
 21
84.219995
 31
0.0
  0
LINE
  5
184
100
AcDbEntity
  8
outline_segments
 62
7
100
AcDbLine
 10
94.415500
 20
84.219995
 30
0.0
 11
94.871969
 21
84.293460
 31
0.0
  0
LINE
  5
185
100
AcDbEntity
  8
outline_segments
 62
7
100
AcDbLine
 10
94.871969
 20
84.293460
 30
0.0
 11
95.329378
 21
84.360609
 31
0.0
  0
LINE
  5
186
100
AcDbEntity
  8
outline_segments
 62
7
100
AcDbLine
 10
95.329378
 20
84.360609
 30
0.0
 11
95.787684
 21
84.421442
 31
0.0
  0
LINE
  5
187
100
AcDbEntity
  8
outline_segments
 62
7
100
AcDbLine
 10
95.787684
 20
84.421442
 30
0.0
 11
96.246840
 21
84.475948
 31
0.0
  0
LINE
  5
188
100
AcDbEntity
  8
outline_segments
 62
7
100
AcDbLine
 10
96.246840
 20
84.475948
 30
0.0
 11
96.706800
 21
84.524115
 31
0.0
  0
LINE
  5
189
100
AcDbEntity
  8
outline_segments
 62
7
100
AcDbLine
 10
96.706800
 20
84.524115
 30
0.0
 11
97.167517
 21
84.565934
 31
0.0
  0
LINE
  5
18a
100
AcDbEntity
  8
outline_segments
 62
7
100
AcDbLine
 10
97.167517
 20
84.565934
 30
0.0
 11
97.628941
 21
84.601404
 31
0.0
  0
LINE
  5
18b
100
AcDbEntity
  8
outline_segments
 62
7
100
AcDbLine
 10
97.628941
 20
84.601404
 30
0.0
 11
98.091027
 21
84.630510
 31
0.0
  0
LINE
  5
18c
100
AcDbEntity
  8
outline_segments
 62
7
100
AcDbLine
 10
98.091027
 20
84.630510
 30
0.0
 11
98.553733
 21
84.653257
 31
0.0
  0
LINE
  5
18d
100
AcDbEntity
  8
outline_segments
 62
7
100
AcDbLine
 10
98.553733
 20
84.653257
 30
0.0
 11
99.017003
 21
84.669626
 31
0.0
  0
LINE
  5
18e
100
AcDbEntity
  8
outline_segments
 62
7
100
AcDbLine
 10
99.017003
 20
84.669626
 30
0.0
 11
99.480799
 21
84.679588
 31
0.0
  0
LINE
  5
18f
100
AcDbEntity
  8
outline_segments
 62
7
100
AcDbLine
 10
99.480799
 20
84.679588
 30
0.0
 11
99.945071
 21
84.683172
 31
0.0
  0
LINE
  5
190
100
AcDbEntity
  8
outline_segments
 62
7
100
AcDbLine
 10
99.945071
 20
84.683172
 30
0.0
 11
100.409773
 21
84.680350
 31
0.0
  0
LINE
  5
191
100
AcDbEntity
  8
outline_segments
 62
7
100
AcDbLine
 10
100.409773
 20
84.680350
 30
0.0
 11
100.874855
 21
84.671093
 31
0.0
  0
LINE
  5
192
100
AcDbEntity
  8
outline_segments
 62
7
100
AcDbLine
 10
100.874855
 20
84.671093
 30
0.0
 11
101.340274
 21
84.655430
 31
0.0
  0
LINE
  5
193
100
AcDbEntity
  8
outline_segments
 62
7
100
AcDbLine
 10
101.340274
 20
84.655430
 30
0.0
 11
101.805980
 21
84.633332
 31
0.0
  0
LINE
  5
194
100
AcDbEntity
  8
outline_segments
 62
7
100
AcDbLine
 10
101.805980
 20
84.633332
 30
0.0
 11
102.271932
 21
84.604788
 31
0.0
  0
LINE
  5
195
100
AcDbEntity
  8
outline_segments
 62
7
100
AcDbLine
 10
102.271932
 20
84.604788
 30
0.0
 11
102.738075
 21
84.569792
 31
0.0
  0
LINE
  5
196
100
AcDbEntity
  8
outline_segments
 62
7
100
AcDbLine
 10
102.738075
 20
84.569792
 30
0.0
 11
103.204371
 21
84.528342
 31
0.0
  0
LINE
  5
197
100
AcDbEntity
  8
outline_segments
 62
7
100
AcDbLine
 10
103.204371
 20
84.528342
 30
0.0
 11
103.670766
 21
84.480424
 31
0.0
  0
LINE
  5
198
100
AcDbEntity
  8
outline_segments
 62
7
100
AcDbLine
 10
103.670766
 20
84.480424
 30
0.0
 11
104.137217
 21
84.426031
 31
0.0
  0
LINE
  5
199
100
AcDbEntity
  8
outline_segments
 62
7
100
AcDbLine
 10
104.137217
 20
84.426031
 30
0.0
 11
104.603677
 21
84.365156
 31
0.0
  0
LINE
  5
19a
100
AcDbEntity
  8
outline_segments
 62
7
100
AcDbLine
 10
104.603677
 20
84.365156
 30
0.0
 11
105.070100
 21
84.297789
 31
0.0
  0
LINE
  5
19b
100
AcDbEntity
  8
outline_segments
 62
7
100
AcDbLine
 10
105.070100
 20
84.297789
 30
0.0
 11
105.536436
 21
84.223923
 31
0.0
  0
LINE
  5
19c
100
AcDbEntity
  8
outline_segments
 62
7
100
AcDbLine
 10
105.536436
 20
84.223923
 30
0.0
 11
106.002641
 21
84.143547
 31
0.0
  0
LINE
  5
19d
100
AcDbEntity
  8
outline_segments
 62
7
100
AcDbLine
 10
106.002641
 20
84.143547
 30
0.0
 11
106.468669
 21
84.056653
 31
0.0
  0
LINE
  5
19e
100
AcDbEntity
  8
outline_segments
 62
7
100
AcDbLine
 10
106.468669
 20
84.056653
 30
0.0
 11
106.934468
 21
83.963232
 31
0.0
  0
LINE
  5
19f
100
AcDbEntity
  8
outline_segments
 62
7
100
AcDbLine
 10
106.934468
 20
83.963232
 30
0.0
 11
107.400000
 21
83.863277
 31
0.0
  0
LINE
  5
1a0
100
AcDbEntity
  8
outline_segments
 62
7
100
AcDbLine
 10
107.400000
 20
83.863277
 30
0.0
 11
107.784065
 21
83.852581
 31
0.0
  0
LINE
  5
1a1
100
AcDbEntity
  8
outline_segments
 62
7
100
AcDbLine
 10
107.784065
 20
83.852581
 30
0.0
 11
108.229346
 21
83.965464
 31
0.0
  0
LINE
  5
1a2
100
AcDbEntity
  8
outline_segments
 62
7
100
AcDbLine
 10
108.229346
 20
83.965464
 30
0.0
 11
108.701944
 21
84.191694
 31
0.0
  0
LINE
  5
1a3
100
AcDbEntity
  8
outline_segments
 62
7
100
AcDbLine
 10
108.701944
 20
84.191694
 30
0.0
 11
109.167955
 21
84.521036
 31
0.0
  0
LINE
  5
1a4
100
AcDbEntity
  8
outline_segments
 62
7
100
AcDbLine
 10
109.167955
 20
84.521036
 30
0.0
 11
109.593470
 21
84.943257
 31
0.0
  0
LINE
  5
1a5
100
AcDbEntity
  8
outline_segments
 62
7
100
AcDbLine
 10
109.593470
 20
84.943257
 30
0.0
 11
109.944589
 21
85.448133
 31
0.0
  0
LINE
  5
1a6
100
AcDbEntity
  8
outline_segments
 62
7
100
AcDbLine
 10
109.944589
 20
85.448133
 30
0.0
 11
110.187404
 21
86.025424
 31
0.0
  0
LINE
  5
1a7
100
AcDbEntity
  8
outline_segments
 62
7
100
AcDbLine
 10
110.187404
 20
86.025424
 30
0.0
 11
110.288014
 21
86.664903
 31
0.0
  0
LINE
  5
1a8
100
AcDbEntity
  8
outline_segments
 62
7
100
AcDbLine
 10
110.288014
 20
86.664903
 30
0.0
 11
110.222984
 21
87.422167
 31
0.0
  0
LINE
  5
1a9
100
AcDbEntity
  8
outline_segments
 62
7
100
AcDbLine
 10
110.222984
 20
87.422167
 30
0.0
 11
110.023899
 21
88.035120
 31
0.0
  0
LINE
  5
1aa
100
AcDbEntity
  8
outline_segments
 62
7
100
AcDbLine
 10
110.023899
 20
88.035120
 30
0.0
 11
109.754077
 21
88.555425
 31
0.0
  0
LINE
  5
1ab
100
AcDbEntity
  8
outline_segments
 62
7
100
AcDbLine
 10
109.754077
 20
88.555425
 30
0.0
 11
109.476834
 21
89.034748
 31
0.0
  0
LINE
  5
1ac
100
AcDbEntity
  8
outline_segments
 62
7
100
AcDbLine
 10
109.476834
 20
89.034748
 30
0.0
 11
109.255489
 21
89.524754
 31
0.0
  0
LINE
  5
1ad
100
AcDbEntity
  8
outline_segments
 62
7
100
AcDbLine
 10
109.255489
 20
89.524754
 30
0.0
 11
109.153359
 21
90.077108
 31
0.0
  0
LINE
  5
1ae
100
AcDbEntity
  8
outline_segments
 62
7
100
AcDbLine
 10
109.153359
 20
90.077108
 30
0.0
 11
109.233756
 21
90.743474
 31
0.0
  0
LINE
  5
1af
100
AcDbEntity
  8
outline_segments
 62
7
100
AcDbLine
 10
109.233756
 20
90.743474
 30
0.0
 11
109.560002
 21
91.575516
 31
0.0
  0
LINE
  5
1b0
100
AcDbEntity
  8
outline_segments
 62
7
100
AcDbLine
 10
109.560002
 20
91.575516
 30
0.0
 11
109.789412
 21
92.072238
 31
0.0
  0
LINE
  5
1b1
100
AcDbEntity
  8
outline_segments
 62
7
100
AcDbLine
 10
109.789412
 20
92.072238
 30
0.0
 11
109.984845
 21
92.582084
 31
0.0
  0
LINE
  5
1b2
100
AcDbEntity
  8
outline_segments
 62
7
100
AcDbLine
 10
109.984845
 20
92.582084
 30
0.0
 11
110.148051
 21
93.103157
 31
0.0
  0
LINE
  5
1b3
100
AcDbEntity
  8
outline_segments
 62
7
100
AcDbLine
 10
110.148051
 20
93.103157
 30
0.0
 11
110.280777
 21
93.633559
 31
0.0
  0
LINE
  5
1b4
100
AcDbEntity
  8
outline_segments
 62
7
100
AcDbLine
 10
110.280777
 20
93.633559
 30
0.0
 11
110.384779
 21
94.171399
 31
0.0
  0
LINE
  5
1b5
100
AcDbEntity
  8
outline_segments
 62
7
100
AcDbLine
 10
110.384779
 20
94.171399
 30
0.0
 11
110.461806
 21
94.714781
 31
0.0
  0
LINE
  5
1b6
100
AcDbEntity
  8
outline_segments
 62
7
100
AcDbLine
 10
110.461806
 20
94.714781
 30
0.0
 11
110.513608
 21
95.261812
 31
0.0
  0
LINE
  5
1b7
100
AcDbEntity
  8
outline_segments
 62
7
100
AcDbLine
 10
110.513608
 20
95.261812
 30
0.0
 11
110.541935
 21
95.810596
 31
0.0
  0
LINE
  5
1b8
100
AcDbEntity
  8
outline_segments
 62
7
100
AcDbLine
 10
110.541935
 20
95.810596
 30
0.0
 11
110.548539
 21
96.359239
 31
0.0
  0
LINE
  5
1b9
100
AcDbEntity
  8
outline_segments
 62
7
100
AcDbLine
 10
110.548539
 20
96.359239
 30
0.0
 11
110.535161
 21
96.905847
 31
0.0
  0
LINE
  5
1ba
100
AcDbEntity
  8
outline_segments
 62
7
100
AcDbLine
 10
110.535161
 20
96.905847
 30
0.0
 11
110.503569
 21
97.448524
 31
0.0
  0
LINE
  5
1bb
100
AcDbEntity
  8
outline_segments
 62
7
100
AcDbLine
 10
110.503569
 20
97.448524
 30
0.0
 11
110.455504
 21
97.985375
 31
0.0
  0
LINE
  5
1bc
100
AcDbEntity
  8
outline_segments
 62
7
100
AcDbLine
 10
110.455504
 20
97.985375
 30
0.0
 11
110.392721
 21
98.514508
 31
0.0
  0
LINE
  5
1bd
100
AcDbEntity
  8
outline_segments
 62
7
100
AcDbLine
 10
110.392721
 20
98.514508
 30
0.0
 11
110.316967
 21
99.034028
 31
0.0
  0
LINE
  5
1be
100
AcDbEntity
  8
outline_segments
 62
7
100
AcDbLine
 10
110.316967
 20
99.034028
 30
0.0
 11
110.229991
 21
99.542037
 31
0.0
  0
LINE
  5
1bf
100
AcDbEntity
  8
outline_segments
 62
7
100
AcDbLine
 10
110.229991
 20
99.542037
 30
0.0
 11
110.133548
 21
100.036645
 31
0.0
  0
LINE
  5
1c0
100
AcDbEntity
  8
outline_segments
 62
7
100
AcDbLine
 10
110.133548
 20
100.036645
 30
0.0
 11
110.029388
 21
100.515955
 31
0.0
  0
LINE
  5
1c1
100
AcDbEntity
  8
outline_segments
 62
7
100
AcDbLine
 10
110.029388
 20
100.515955
 30
0.0
 11
109.919259
 21
100.978071
 31
0.0
  0
LINE
  5
1c2
100
AcDbEntity
  8
outline_segments
 62
7
100
AcDbLine
 10
109.919259
 20
100.978071
 30
0.0
 11
109.804911
 21
101.421101
 31
0.0
  0
LINE
  5
1c3
100
AcDbEntity
  8
outline_segments
 62
7
100
AcDbLine
 10
109.804911
 20
101.421101
 30
0.0
 11
109.688099
 21
101.843147
 31
0.0
  0
LINE
  5
1c4
100
AcDbEntity
  8
outline_segments
 62
7
100
AcDbLine
 10
109.688099
 20
101.843147
 30
0.0
 11
109.570574
 21
102.242319
 31
0.0
  0
LINE
  5
1c5
100
AcDbEntity
  8
outline_segments
 62
7
100
AcDbLine
 10
109.570574
 20
102.242319
 30
0.0
 11
109.454081
 21
102.616718
 31
0.0
  0
LINE
  5
1c6
100
AcDbEntity
  8
outline_segments
 62
7
100
AcDbLine
 10
109.454081
 20
102.616718
 30
0.0
 11
109.340373
 21
102.964455
 31
0.0
  0
LINE
  5
1c7
100
AcDbEntity
  8
outline_segments
 62
7
100
AcDbLine
 10
109.340373
 20
102.964455
 30
0.0
 11
109.231201
 21
103.283629
 31
0.0
  0
LINE
  5
1c8
100
AcDbEntity
  8
outline_segments
 62
7
100
AcDbLine
 10
109.231201
 20
103.283629
 30
0.0
 11
109.128320
 21
103.572351
 31
0.0
  0
LINE
  5
1c9
100
AcDbEntity
  8
outline_segments
 62
7
100
AcDbLine
 10
109.128320
 20
103.572351
 30
0.0
 11
109.033474
 21
103.828722
 31
0.0
  0
LINE
  5
1ca
100
AcDbEntity
  8
outline_segments
 62
7
100
AcDbLine
 10
109.033474
 20
103.828722
 30
0.0
 11
108.948418
 21
104.050850
 31
0.0
  0
LINE
  5
1cb
100
AcDbEntity
  8
outline_segments
 62
7
100
AcDbLine
 10
108.948418
 20
104.050850
 30
0.0
 11
108.874899
 21
104.236840
 31
0.0
  0
LINE
  5
1cc
100
AcDbEntity
  8
outline_segments
 62
7
100
AcDbLine
 10
108.874899
 20
104.236840
 30
0.0
 11
108.814672
 21
104.384795
 31
0.0
  0
LINE
  5
1cd
100
AcDbEntity
  8
outline_segments
 62
7
100
AcDbLine
 10
108.814672
 20
104.384795
 30
0.0
 11
108.769483
 21
104.492824
 31
0.0
  0
LINE
  5
1ce
100
AcDbEntity
  8
outline_segments
 62
7
100
AcDbLine
 10
108.769483
 20
104.492824
 30
0.0
 11
108.741089
 21
104.559031
 31
0.0
  0
LINE
  5
1cf
100
AcDbEntity
  8
outline_segments
 62
7
100
AcDbLine
 10
108.741089
 20
104.559031
 30
0.0
 11
108.731239
 21
104.581524
 31
0.0
  0
LINE
  5
1d0
100
AcDbEntity
  8
outline_segments
 62
7
100
AcDbLine
 10
108.731239
 20
104.581524
 30
0.0
 11
108.305781
 21
105.052231
 31
0.0
  0
LINE
  5
1d1
100
AcDbEntity
  8
outline_segments
 62
7
100
AcDbLine
 10
108.305781
 20
105.052231
 30
0.0
 11
107.856774
 21
105.492568
 31
0.0
  0
LINE
  5
1d2
100
AcDbEntity
  8
outline_segments
 62
7
100
AcDbLine
 10
107.856774
 20
105.492568
 30
0.0
 11
107.385798
 21
105.902538
 31
0.0
  0
LINE
  5
1d3
100
AcDbEntity
  8
outline_segments
 62
7
100
AcDbLine
 10
107.385798
 20
105.902538
 30
0.0
 11
106.894435
 21
106.282141
 31
0.0
  0
LINE
  5
1d4
100
AcDbEntity
  8
outline_segments
 62
7
100
AcDbLine
 10
106.894435
 20
106.282141
 30
0.0
 11
106.384262
 21
106.631374
 31
0.0
  0
LINE
  5
1d5
100
AcDbEntity
  8
outline_segments
 62
7
100
AcDbLine
 10
106.384262
 20
106.631374
 30
0.0
 11
105.856859
 21
106.950240
 31
0.0
  0
LINE
  5
1d6
100
AcDbEntity
  8
outline_segments
 62
7
100
AcDbLine
 10
105.856859
 20
106.950240
 30
0.0
 11
105.313802
 21
107.238736
 31
0.0
  0
LINE
  5
1d7
100
AcDbEntity
  8
outline_segments
 62
7
100
AcDbLine
 10
105.313802
 20
107.238736
 30
0.0
 11
104.756672
 21
107.496865
 31
0.0
  0
LINE
  5
1d8
100
AcDbEntity
  8
outline_segments
 62
7
100
AcDbLine
 10
104.756672
 20
107.496865
 30
0.0
 11
104.187049
 21
107.724627
 31
0.0
  0
LINE
  5
1d9
100
AcDbEntity
  8
outline_segments
 62
7
100
AcDbLine
 10
104.187049
 20
107.724627
 30
0.0
 11
103.606510
 21
107.922019
 31
0.0
  0
LINE
  5
1da
100
AcDbEntity
  8
outline_segments
 62
7
100
AcDbLine
 10
103.606510
 20
107.922019
 30
0.0
 11
103.016631
 21
108.089044
 31
0.0
  0
LINE
  5
1db
100
AcDbEntity
  8
outline_segments
 62
7
100
AcDbLine
 10
103.016631
 20
108.089044
 30
0.0
 11
102.418998
 21
108.225701
 31
0.0
  0
LINE
  5
1dc
100
AcDbEntity
  8
outline_segments
 62
7
100
AcDbLine
 10
102.418998
 20
108.225701
 30
0.0
 11
101.815186
 21
108.331989
 31
0.0
  0
LINE
  5
1dd
100
AcDbEntity
  8
outline_segments
 62
7
100
AcDbLine
 10
101.815186
 20
108.331989
 30
0.0
 11
101.206774
 21
108.407910
 31
0.0
  0
LINE
  5
1de
100
AcDbEntity
  8
outline_segments
 62
7
100
AcDbLine
 10
101.206774
 20
108.407910
 30
0.0
 11
100.595340
 21
108.453463
 31
0.0
  0
LINE
  5
1df
100
AcDbEntity
  8
outline_segments
 62
7
100
AcDbLine
 10
100.595340
 20
108.453463
 30
0.0
 11
99.982463
 21
108.468647
 31
0.0
  0
LINE
  5
1e0
100
AcDbEntity
  8
outline_segments
 62
7
100
AcDbLine
 10
99.982463
 20
108.468647
 30
0.0
 11
99.369728
 21
108.453463
 31
0.0
  0
LINE
  5
1e1
100
AcDbEntity
  8
outline_segments
 62
7
100
AcDbLine
 10
99.369728
 20
108.453463
 30
0.0
 11
98.758705
 21
108.407910
 31
0.0
  0
LINE
  5
1e2
100
AcDbEntity
  8
outline_segments
 62
7
100
AcDbLine
 10
98.758705
 20
108.407910
 30
0.0
 11
98.150976
 21
108.331989
 31
0.0
  0
LINE
  5
1e3
100
AcDbEntity
  8
outline_segments
 62
7
100
AcDbLine
 10
98.150976
 20
108.331989
 30
0.0
 11
97.548121
 21
108.225701
 31
0.0
  0
LINE
  5
1e4
100
AcDbEntity
  8
outline_segments
 62
7
100
AcDbLine
 10
97.548121
 20
108.225701
 30
0.0
 11
96.951721
 21
108.089044
 31
0.0
  0
LINE
  5
1e5
100
AcDbEntity
  8
outline_segments
 62
7
100
AcDbLine
 10
96.951721
 20
108.089044
 30
0.0
 11
96.363353
 21
107.922019
 31
0.0
  0
LINE
  5
1e6
100
AcDbEntity
  8
outline_segments
 62
7
100
AcDbLine
 10
96.363353
 20
107.922019
 30
0.0
 11
95.784594
 21
107.724627
 31
0.0
  0
LINE
  5
1e7
100
AcDbEntity
  8
outline_segments
 62
7
100
AcDbLine
 10
95.784594
 20
107.724627
 30
0.0
 11
95.217025
 21
107.496865
 31
0.0
  0
LINE
  5
1e8
100
AcDbEntity
  8
outline_segments
 62
7
100
AcDbLine
 10
95.217025
 20
107.496865
 30
0.0
 11
94.662221
 21
107.238736
 31
0.0
  0
LINE
  5
1e9
100
AcDbEntity
  8
outline_segments
 62
7
100
AcDbLine
 10
94.662221
 20
107.238736
 30
0.0
 11
94.121769
 21
106.950240
 31
0.0
  0
LINE
  5
1ea
100
AcDbEntity
  8
outline_segments
 62
7
100
AcDbLine
 10
94.121769
 20
106.950240
 30
0.0
 11
93.597242
 21
106.631374
 31
0.0
  0
LINE
  5
1eb
100
AcDbEntity
  8
outline_segments
 62
7
100
AcDbLine
 10
93.597242
 20
106.631374
 30
0.0
 11
93.090218
 21
106.282141
 31
0.0
  0
LINE
  5
1ec
100
AcDbEntity
  8
outline_segments
 62
7
100
AcDbLine
 10
93.090218
 20
106.282141
 30
0.0
 11
92.602281
 21
105.902538
 31
0.0
  0
LINE
  5
1ed
100
AcDbEntity
  8
outline_segments
 62
7
100
AcDbLine
 10
92.602281
 20
105.902538
 30
0.0
 11
92.135006
 21
105.492568
 31
0.0
  0
LINE
  5
1ee
100
AcDbEntity
  8
outline_segments
 62
7
100
AcDbLine
 10
92.135006
 20
105.492568
 30
0.0
 11
91.689973
 21
105.052231
 31
0.0
  0
LINE
  5
1ef
100
AcDbEntity
  8
outline_segments
 62
7
100
AcDbLine
 10
91.689973
 20
105.052231
 30
0.0
 11
91.268759
 21
104.581524
 31
0.0
  0
LINE
  5
1f0
100
AcDbEntity
  8
outline_segments
 62
7
100
AcDbLine
 10
91.268759
 20
104.581524
 30
0.0
 11
91.259361
 21
104.559087
 31
0.0
  0
LINE
  5
1f1
100
AcDbEntity
  8
outline_segments
 62
7
100
AcDbLine
 10
91.259361
 20
104.559087
 30
0.0
 11
91.232268
 21
104.493025
 31
0.0
  0
LINE
  5
1f2
100
AcDbEntity
  8
outline_segments
 62
7
100
AcDbLine
 10
91.232268
 20
104.493025
 30
0.0
 11
91.189133
 21
104.385227
 31
0.0
  0
LINE
  5
1f3
100
AcDbEntity
  8
outline_segments
 62
7
100
AcDbLine
 10
91.189133
 20
104.385227
 30
0.0
 11
91.131624
 21
104.237574
 31
0.0
  0
LINE
  5
1f4
100
AcDbEntity
  8
outline_segments
 62
7
100
AcDbLine
 10
91.131624
 20
104.237574
 30
0.0
 11
91.061407
 21
104.051956
 31
0.0
  0
LINE
  5
1f5
100
AcDbEntity
  8
outline_segments
 62
7
100
AcDbLine
 10
91.061407
 20
104.051956
 30
0.0
 11
90.980147
 21
103.830254
 31
0.0
  0
LINE
  5
1f6
100
AcDbEntity
  8
outline_segments
 62
7
100
AcDbLine
 10
90.980147
 20
103.830254
 30
0.0
 11
90.889506
 21
103.574352
 31
0.0
  0
LINE
  5
1f7
100
AcDbEntity
  8
outline_segments
 62
7
100
AcDbLine
 10
90.889506
 20
103.574352
 30
0.0
 11
90.791146
 21
103.286138
 31
0.0
  0
LINE
  5
1f8
100
AcDbEntity
  8
outline_segments
 62
7
100
AcDbLine
 10
90.791146
 20
103.286138
 30
0.0
 11
90.686732
 21
102.967495
 31
0.0
  0
LINE
  5
1f9
100
AcDbEntity
  8
outline_segments
 62
7
100
AcDbLine
 10
90.686732
 20
102.967495
 30
0.0
 11
90.577927
 21
102.620311
 31
0.0
  0
LINE
  5
1fa
100
AcDbEntity
  8
outline_segments
 62
7
100
AcDbLine
 10
90.577927
 20
102.620311
 30
0.0
 11
90.466395
 21
102.246465
 31
0.0
  0
LINE
  5
1fb
100
AcDbEntity
  8
outline_segments
 62
7
100
AcDbLine
 10
90.466395
 20
102.246465
 30
0.0
 11
90.353800
 21
101.847846
 31
0.0
  0
LINE
  5
1fc
100
AcDbEntity
  8
outline_segments
 62
7
100
AcDbLine
 10
90.353800
 20
101.847846
 30
0.0
 11
90.241803
 21
101.426336
 31
0.0
  0
LINE
  5
1fd
100
AcDbEntity
  8
outline_segments
 62
7
100
AcDbLine
 10
90.241803
 20
101.426336
 30
0.0
 11
90.132067
 21
100.983823
 31
0.0
  0
LINE
  5
1fe
100
AcDbEntity
  8
outline_segments
 62
7
100
AcDbLine
 10
90.132067
 20
100.983823
 30
0.0
 11
90.026259
 21
100.522192
 31
0.0
  0
LINE
  5
1ff
100
AcDbEntity
  8
outline_segments
 62
7
100
AcDbLine
 10
90.026259
 20
100.522192
 30
0.0
 11
89.926039
 21
100.043323
 31
0.0
  0
LINE
  5
200
100
AcDbEntity
  8
outline_segments
 62
7
100
AcDbLine
 10
89.926039
 20
100.043323
 30
0.0
 11
89.833072
 21
99.549107
 31
0.0
  0
LINE
  5
201
100
AcDbEntity
  8
outline_segments
 62
7
100
AcDbLine
 10
89.833072
 20
99.549107
 30
0.0
 11
89.749023
 21
99.041425
 31
0.0
  0
LINE
  5
202
100
AcDbEntity
  8
outline_segments
 62
7
100
AcDbLine
 10
89.749023
 20
99.041425
 30
0.0
 11
89.675552
 21
98.522162
 31
0.0
  0
LINE
  5
203
100
AcDbEntity
  8
outline_segments
 62
7
100
AcDbLine
 10
89.675552
 20
98.522162
 30
0.0
 11
89.614324
 21
97.993204
 31
0.0
  0
LINE
  5
204
100
AcDbEntity
  8
outline_segments
 62
7
100
AcDbLine
 10
89.614324
 20
97.993204
 30
0.0
 11
89.567001
 21
97.456434
 31
0.0
  0
LINE
  5
205
100
AcDbEntity
  8
outline_segments
 62
7
100
AcDbLine
 10
89.567001
 20
97.456434
 30
0.0
 11
89.535248
 21
96.913738
 31
0.0
  0
LINE
  5
206
100
AcDbEntity
  8
outline_segments
 62
7
100
AcDbLine
 10
89.535248
 20
96.913738
 30
0.0
 11
89.520742
 21
96.367003
 31
0.0
  0
LINE
  5
207
100
AcDbEntity
  8
outline_segments
 62
7
100
AcDbLine
 10
89.520742
 20
96.367003
 30
0.0
 11
89.525117
 21
95.818109
 31
0.0
  0
LINE
  5
208
100
AcDbEntity
  8
outline_segments
 62
7
100
AcDbLine
 10
89.525117
 20
95.818109
 30
0.0
 11
89.550065
 21
95.268947
 31
0.0
  0
LINE
  5
209
100
AcDbEntity
  8
outline_segments
 62
7
100
AcDbLine
 10
89.550065
 20
95.268947
 30
0.0
 11
89.597227
 21
94.721396
 31
0.0
  0
LINE
  5
20a
100
AcDbEntity
  8
outline_segments
 62
7
100
AcDbLine
 10
89.597227
 20
94.721396
 30
0.0
 11
89.668274
 21
94.177342
 31
0.0
  0
LINE
  5
20b
100
AcDbEntity
  8
outline_segments
 62
7
100
AcDbLine
 10
89.668274
 20
94.177342
 30
0.0
 11
89.764873
 21
93.638673
 31
0.0
  0
LINE
  5
20c
100
AcDbEntity
  8
outline_segments
 62
7
100
AcDbLine
 10
89.764873
 20
93.638673
 30
0.0
 11
89.888684
 21
93.107271
 31
0.0
  0
LINE
  5
20d
100
AcDbEntity
  8
outline_segments
 62
7
100
AcDbLine
 10
89.888684
 20
93.107271
 30
0.0
 11
90.041372
 21
92.585022
 31
0.0
  0
LINE
  5
20e
100
AcDbEntity
  8
outline_segments
 62
7
100
AcDbLine
 10
90.041372
 20
92.585022
 30
0.0
 11
90.224602
 21
92.073810
 31
0.0
  0
LINE
  5
20f
100
AcDbEntity
  8
outline_segments
 62
7
100
AcDbLine
 10
90.224602
 20
92.073810
 30
0.0
 11
90.440033
 21
91.575522
 31
0.0
  0
LINE
  5
210
100
AcDbEntity
  8
outline_segments
 62
7
100
AcDbLine
 10
90.440033
 20
91.575522
 30
0.0
 11
90.747418
 21
90.736856
 31
0.0
  0
LINE
  5
211
100
AcDbEntity
  8
outline_segments
 62
7
100
AcDbLine
 10
90.747418
 20
90.736856
 30
0.0
 11
90.822811
 21
90.062740
 31
0.0
  0
LINE
  5
212
100
AcDbEntity
  8
outline_segments
 62
7
100
AcDbLine
 10
90.822811
 20
90.062740
 30
0.0
 11
90.725264
 21
89.502859
 31
0.0
  0
LINE
  5
213
100
AcDbEntity
  8
outline_segments
 62
7
100
AcDbLine
 10
90.725264
 20
89.502859
 30
0.0
 11
90.513826
 21
89.006899
 31
0.0
  0
LINE
  5
214
100
AcDbEntity
  8
outline_segments
 62
7
100
AcDbLine
 10
90.513826
 20
89.006899
 30
0.0
 11
90.247538
 21
88.524544
 31
0.0
  0
LINE
  5
215
100
AcDbEntity
  8
outline_segments
 62
7
100
AcDbLine
 10
90.247538
 20
88.524544
 30
0.0
 11
89.985455
 21
88.005487
 31
0.0
  0
LINE
  5
216
100
AcDbEntity
  8
outline_segments
 62
7
100
AcDbLine
 10
89.985455
 20
88.005487
 30
0.0
 11
89.786624
 21
87.399409
 31
0.0
  0
LINE
  5
217
100
AcDbEntity
  8
outline_segments
 62
7
100
AcDbLine
 10
89.786624
 20
87.399409
 30
0.0
 11
89.710091
 21
86.655999
 31
0.0
  0
LINE
  5
218
100
AcDbEntity
  8
outline_segments
 62
7
100
AcDbLine
 10
89.710091
 20
86.655999
 30
0.0
 11
89.798878
 21
86.007176
 31
0.0
  0
LINE
  5
219
100
AcDbEntity
  8
outline_segments
 62
7
100
AcDbLine
 10
89.798878
 20
86.007176
 30
0.0
 11
90.035022
 21
85.425778
 31
0.0
  0
LINE
  5
21a
100
AcDbEntity
  8
outline_segments
 62
7
100
AcDbLine
 10
90.035022
 20
85.425778
 30
0.0
 11
90.383764
 21
84.920914
 31
0.0
  0
LINE
  5
21b
100
AcDbEntity
  8
outline_segments
 62
7
100
AcDbLine
 10
90.383764
 20
84.920914
 30
0.0
 11
90.810351
 21
84.501684
 31
0.0
  0
LINE
  5
21c
100
AcDbEntity
  8
outline_segments
 62
7
100
AcDbLine
 10
90.810351
 20
84.501684
 30
0.0
 11
91.280028
 21
84.177202
 31
0.0
  0
LINE
  5
21d
100
AcDbEntity
  8
outline_segments
 62
7
100
AcDbLine
 10
91.280028
 20
84.177202
 30
0.0
 11
91.758036
 21
83.956566
 31
0.0
  0
LINE
  5
21e
100
AcDbEntity
  8
outline_segments
 62
7
100
AcDbLine
 10
91.758036
 20
83.956566
 30
0.0
 11
92.209623
 21
83.848892
 31
0.0
  0
LINE
  5
21f
100
AcDbEntity
  8
outline_segments
 62
7
100
AcDbLine
 10
92.209623
 20
83.848892
 30
0.0
 11
92.600029
 21
83.863286
 31
0.0
  0
LINE
  5
220
100
AcDbEntity
  8
outline_segments
 62
7
100
AcDbLine
 10
92.600029
 20
83.863286
 30
0.0
 11
92.599998
 21
83.863210
 31
0.0
  0
ENDSEC
  0
SECTION
  2
OBJECTS
  0
DICTIONARY
  5
C
330
0
100
AcDbDictionary
  3
ACAD_GROUP
350
D
  3
ACAD_MLINESTYLE
350
17
  0
DICTIONARY
  5
D
330
C
100
AcDbDictionary
  0
DICTIONARY
  5
1A
330
C
100
AcDbDictionary
  0
DICTIONARY
  5
17
330
C
100
AcDbDictionary
  3
STANDARD
350
18
  0
DICTIONARY
  5
19
330
C
100
AcDbDictionary
  0
ENDSEC
  0
EOF
