G04 #@! TF.FileFunction,Copper,L2,Bot,Signal*
%FSLAX46Y46*%
G04 Gerber Fmt 4.6, Leading zero omitted, Abs format (unit mm)*
G04 Created by KiCad (PCBNEW 4.0.7-e2-6376~58~ubuntu14.04.1) date Thu May 17 14:08:47 2018*
%MOMM*%
%LPD*%
G01*
G04 APERTURE LIST*
%ADD10C,0.100000*%
%ADD11C,0.300000*%
%ADD12C,0.140000*%
%ADD13C,0.300000*%
%ADD14C,0.600000*%
%ADD15R,0.250000X1.200000*%
%ADD16R,1.250000X1.500000*%
%ADD17R,0.800000X0.500000*%
%ADD18C,1.200000*%
%ADD19C,5.800000*%
%ADD20C,1.000000*%
%ADD21C,0.200000*%
%ADD22C,0.500000*%
G04 APERTURE END LIST*
D10*
D11*
X82261905Y-151142857D02*
X80738095Y-151142857D01*
X97738095Y-151142857D02*
X99261905Y-151142857D01*
X98500000Y-151904762D02*
X98500000Y-150380952D01*
D12*
X93047619Y-128852381D02*
X92380952Y-128852381D01*
X93047619Y-129852381D01*
X92380952Y-129852381D01*
X91666666Y-129328571D02*
X92000000Y-129328571D01*
X92000000Y-129852381D02*
X92000000Y-128852381D01*
X91523809Y-128852381D01*
X90428571Y-128947619D02*
X90380952Y-128900000D01*
X90285714Y-128852381D01*
X90047618Y-128852381D01*
X89952380Y-128900000D01*
X89904761Y-128947619D01*
X89857142Y-129042857D01*
X89857142Y-129138095D01*
X89904761Y-129280952D01*
X90476190Y-129852381D01*
X89857142Y-129852381D01*
X89238095Y-128852381D02*
X89142856Y-128852381D01*
X89047618Y-128900000D01*
X88999999Y-128947619D01*
X88952380Y-129042857D01*
X88904761Y-129233333D01*
X88904761Y-129471429D01*
X88952380Y-129661905D01*
X88999999Y-129757143D01*
X89047618Y-129804762D01*
X89142856Y-129852381D01*
X89238095Y-129852381D01*
X89333333Y-129804762D01*
X89380952Y-129757143D01*
X89428571Y-129661905D01*
X89476190Y-129471429D01*
X89476190Y-129233333D01*
X89428571Y-129042857D01*
X89380952Y-128947619D01*
X89333333Y-128900000D01*
X89238095Y-128852381D01*
X87952380Y-129852381D02*
X88523809Y-129852381D01*
X88238095Y-129852381D02*
X88238095Y-128852381D01*
X88333333Y-128995238D01*
X88428571Y-129090476D01*
X88523809Y-129138095D01*
X87380952Y-129280952D02*
X87476190Y-129233333D01*
X87523809Y-129185714D01*
X87571428Y-129090476D01*
X87571428Y-129042857D01*
X87523809Y-128947619D01*
X87476190Y-128900000D01*
X87380952Y-128852381D01*
X87190475Y-128852381D01*
X87095237Y-128900000D01*
X87047618Y-128947619D01*
X86999999Y-129042857D01*
X86999999Y-129090476D01*
X87047618Y-129185714D01*
X87095237Y-129233333D01*
X87190475Y-129280952D01*
X87380952Y-129280952D01*
X87476190Y-129328571D01*
X87523809Y-129376190D01*
X87571428Y-129471429D01*
X87571428Y-129661905D01*
X87523809Y-129757143D01*
X87476190Y-129804762D01*
X87380952Y-129852381D01*
X87190475Y-129852381D01*
X87095237Y-129804762D01*
X87047618Y-129757143D01*
X86999999Y-129661905D01*
X86999999Y-129471429D01*
X87047618Y-129376190D01*
X87095237Y-129328571D01*
X87190475Y-129280952D01*
D13*
X98600000Y-132800000D03*
D14*
X98600000Y-132800000D03*
D10*
G36*
X74169207Y-144581468D02*
X75343823Y-145008993D01*
X74830793Y-146418532D01*
X73656177Y-145991007D01*
X74169207Y-144581468D01*
X74169207Y-144581468D01*
G37*
G36*
X59054278Y-133687598D02*
X57271152Y-131935325D01*
X57972062Y-131222074D01*
X59755188Y-132974347D01*
X59054278Y-133687598D01*
X59054278Y-133687598D01*
G37*
G36*
X60610583Y-132281662D02*
X59267334Y-130173183D01*
X60110725Y-129635884D01*
X61453974Y-131744363D01*
X60610583Y-132281662D01*
X60610583Y-132281662D01*
G37*
G36*
X62443266Y-131261852D02*
X61608749Y-128905249D01*
X62551390Y-128571442D01*
X63385907Y-130928045D01*
X62443266Y-131261852D01*
X62443266Y-131261852D01*
G37*
G36*
X64458384Y-130680447D02*
X64175376Y-128196518D01*
X65168948Y-128083315D01*
X65451956Y-130567244D01*
X64458384Y-130680447D01*
X64458384Y-130680447D01*
G37*
G36*
X66552643Y-130567242D02*
X66835651Y-128083313D01*
X67829223Y-128196516D01*
X67546215Y-130680445D01*
X66552643Y-130567242D01*
X66552643Y-130567242D01*
G37*
G36*
X68618692Y-130928046D02*
X69453209Y-128571443D01*
X70395850Y-128905250D01*
X69561333Y-131261853D01*
X68618692Y-130928046D01*
X68618692Y-130928046D01*
G37*
G36*
X70550624Y-131744363D02*
X71893873Y-129635884D01*
X72737264Y-130173183D01*
X71394015Y-132281662D01*
X70550624Y-131744363D01*
X70550624Y-131744363D01*
G37*
D15*
X67000000Y-150700000D03*
X66500000Y-150700000D03*
X66000000Y-150700000D03*
X65500000Y-150700000D03*
X65000000Y-150700000D03*
D16*
X62600000Y-150400000D03*
X69400000Y-150400000D03*
D17*
X90600000Y-151500000D03*
X89400000Y-151500000D03*
D10*
G36*
X72249411Y-132974348D02*
X74032537Y-131222075D01*
X74733447Y-131935326D01*
X72950321Y-133687599D01*
X72249411Y-132974348D01*
X72249411Y-132974348D01*
G37*
G36*
X56656177Y-145008993D02*
X57830793Y-144581468D01*
X58343823Y-145991007D01*
X57169207Y-146418532D01*
X56656177Y-145008993D01*
X56656177Y-145008993D01*
G37*
G36*
X57666266Y-135462019D02*
X56583734Y-134837019D01*
X57333734Y-133537981D01*
X58416266Y-134162981D01*
X57666266Y-135462019D01*
X57666266Y-135462019D01*
G37*
G36*
X75416266Y-134837019D02*
X74333734Y-135462019D01*
X73583734Y-134162981D01*
X74666266Y-133537981D01*
X75416266Y-134837019D01*
X75416266Y-134837019D01*
G37*
D18*
X86190000Y-150365000D03*
X88730000Y-150365000D03*
X91270000Y-150365000D03*
X93810000Y-150365000D03*
D19*
X73400000Y-149800000D03*
D20*
X97400000Y-149800000D03*
D19*
X58600000Y-149800000D03*
D20*
X58600000Y-149800000D03*
D13*
X57200000Y-146800000D03*
X58900000Y-146500000D03*
X73100000Y-146500000D03*
X74800000Y-146800000D03*
X81200000Y-146800000D03*
D14*
X81200000Y-146800000D03*
D13*
X82900000Y-146500000D03*
D14*
X82900000Y-146500000D03*
D13*
X98800000Y-146800000D03*
D14*
X98800000Y-146800000D03*
D13*
X97100000Y-146500000D03*
D14*
X97100000Y-146500000D03*
D13*
X57500000Y-132800000D03*
X74600000Y-132800000D03*
X81400000Y-132800000D03*
D14*
X81400000Y-132800000D03*
D13*
X61500000Y-151600000D03*
X70500000Y-151600000D03*
X85500000Y-151600000D03*
D14*
X85500000Y-151600000D03*
D13*
X94500000Y-151600000D03*
D14*
X94500000Y-151600000D03*
X92500000Y-151600000D03*
X87700000Y-151500000D03*
X61900000Y-148800000D03*
X56900000Y-144200000D03*
X80900000Y-144200000D03*
X87722255Y-149597658D03*
X85300000Y-130500000D03*
X94500000Y-130600000D03*
X99100000Y-144200000D03*
X94943766Y-129934350D03*
X98500000Y-133600000D03*
X92100000Y-150900000D03*
X75200000Y-144200000D03*
X70100000Y-148800000D03*
X68713985Y-150458562D03*
X68692801Y-151643199D03*
X64300000Y-151500000D03*
X63300000Y-150400000D03*
X73400000Y-149800000D03*
X90000000Y-149599998D03*
X63307199Y-151643199D03*
D21*
X93810000Y-150365000D02*
X94658528Y-150365000D01*
X94658528Y-150365000D02*
X95223528Y-149800000D01*
X95223528Y-149800000D02*
X97400000Y-149800000D01*
X92500000Y-151600000D02*
X92575000Y-151600000D01*
X92575000Y-151600000D02*
X93810000Y-150365000D01*
X92500000Y-151600000D02*
X90700000Y-151600000D01*
X90700000Y-151600000D02*
X90600000Y-151500000D01*
X89400000Y-151500000D02*
X87700000Y-151500000D01*
X62400000Y-149300000D02*
X61900000Y-148800000D01*
X63600002Y-149300000D02*
X62400000Y-149300000D01*
X65500000Y-150700000D02*
X65500000Y-149900000D01*
X65500000Y-149900000D02*
X65399999Y-149799999D01*
X65399999Y-149799999D02*
X64100001Y-149799999D01*
X64100001Y-149799999D02*
X63600002Y-149300000D01*
D22*
X58513170Y-132454836D02*
X60360000Y-130960000D01*
X60360000Y-130960000D02*
X62490000Y-129910000D01*
X62490000Y-129910000D02*
X64820000Y-129380000D01*
X64820000Y-129380000D02*
X64813666Y-129381881D01*
D21*
X82000000Y-146175000D02*
X80900000Y-145075000D01*
X86190000Y-150365000D02*
X85341472Y-150365000D01*
X85341472Y-150365000D02*
X82000000Y-147023528D01*
X82000000Y-147023528D02*
X82000000Y-146175000D01*
X80900000Y-145075000D02*
X80900000Y-144200000D01*
X93675736Y-130200000D02*
X85599999Y-130200001D01*
X85599999Y-130200001D02*
X85300000Y-130500000D01*
X94500000Y-130600000D02*
X94075736Y-130600000D01*
X94075736Y-130600000D02*
X93675736Y-130200000D01*
X87722255Y-149597658D02*
X86957342Y-149597658D01*
X86957342Y-149597658D02*
X86190000Y-150365000D01*
X94835001Y-149464999D02*
X99100000Y-145200000D01*
X99100000Y-145200000D02*
X99100000Y-144200000D01*
X94735001Y-149464999D02*
X94835001Y-149464999D01*
X94943766Y-130043766D02*
X94943766Y-129934350D01*
X98500000Y-133600000D02*
X94943766Y-130043766D01*
X94364999Y-149464999D02*
X94735001Y-149464999D01*
X92100000Y-150900000D02*
X92399999Y-150600001D01*
X92399999Y-150600001D02*
X92399999Y-150442999D01*
X92399999Y-150442999D02*
X93377999Y-149464999D01*
X93377999Y-149464999D02*
X94364999Y-149464999D01*
X92100000Y-150900000D02*
X91805000Y-150900000D01*
X91805000Y-150900000D02*
X91270000Y-150365000D01*
D22*
X67190933Y-129381879D02*
X69520000Y-129930000D01*
D21*
X68400000Y-149300000D02*
X69600000Y-149300000D01*
X69600000Y-149300000D02*
X70100000Y-148800000D01*
X67900000Y-149800000D02*
X68400000Y-149300000D01*
X67100000Y-149800000D02*
X67900000Y-149800000D01*
X67000000Y-150700000D02*
X67000000Y-149900000D01*
X67000000Y-149900000D02*
X67100000Y-149800000D01*
D22*
X69520000Y-129930000D02*
X71640000Y-130960000D01*
X71640000Y-130960000D02*
X73490000Y-132440000D01*
X73490000Y-132440000D02*
X73491429Y-132454837D01*
D21*
X69400000Y-150400000D02*
X68772547Y-150400000D01*
X68772547Y-150400000D02*
X68713985Y-150458562D01*
X64300000Y-151500000D02*
X64400000Y-151600000D01*
X64400000Y-151600000D02*
X68649602Y-151600000D01*
X68649602Y-151600000D02*
X68692801Y-151643199D01*
X62600000Y-150400000D02*
X63300000Y-150400000D01*
X90000000Y-149599998D02*
X89495002Y-149599998D01*
X89495002Y-149599998D02*
X88730000Y-150365000D01*
X63411996Y-151500000D02*
X63411996Y-151538402D01*
X63411996Y-151538402D02*
X63307199Y-151643199D01*
X64211996Y-150700000D02*
X63411996Y-151500000D01*
X65000000Y-150700000D02*
X64211996Y-150700000D01*
G36*
X58512553Y-132384128D02*
X58525970Y-132370475D01*
X58594492Y-132443418D01*
X58583878Y-132454219D01*
X58598143Y-132468237D01*
X58528052Y-132539563D01*
X58513787Y-132525544D01*
X58040673Y-133006988D01*
X58041599Y-133113050D01*
X58626225Y-133687561D01*
X58575051Y-133746638D01*
X58571618Y-133751487D01*
X58567452Y-133755717D01*
X58564405Y-133759538D01*
X58487340Y-133857606D01*
X58133253Y-133653173D01*
X58030801Y-133680625D01*
X57568301Y-134481699D01*
X57585622Y-134491699D01*
X57535622Y-134578301D01*
X57518301Y-134568301D01*
X57055801Y-135369375D01*
X57083253Y-135471827D01*
X57357308Y-135630053D01*
X57321494Y-135699979D01*
X57319254Y-135705659D01*
X57316135Y-135710907D01*
X57314091Y-135715346D01*
X57127849Y-136127300D01*
X57125874Y-136133127D01*
X57122991Y-136138567D01*
X57121167Y-136143101D01*
X56954648Y-136565430D01*
X56952947Y-136571395D01*
X56950315Y-136577015D01*
X56948716Y-136581633D01*
X56802505Y-137013749D01*
X56801088Y-137019842D01*
X56798721Y-137025627D01*
X56797353Y-137030319D01*
X56672032Y-137471638D01*
X56670911Y-137477835D01*
X56668817Y-137483783D01*
X56667685Y-137488537D01*
X56563839Y-137938477D01*
X56563022Y-137944770D01*
X56561217Y-137950854D01*
X56560325Y-137955658D01*
X56478539Y-138413635D01*
X56478035Y-138419998D01*
X56476530Y-138426201D01*
X56475880Y-138431045D01*
X56416738Y-138896471D01*
X56416554Y-138902882D01*
X56415358Y-138909184D01*
X56414953Y-138914054D01*
X56379040Y-139386350D01*
X56379181Y-139392784D01*
X56378303Y-139399151D01*
X56378145Y-139404036D01*
X56366038Y-139882612D01*
X56366503Y-139889020D01*
X56365948Y-139895428D01*
X56366038Y-139900314D01*
X56378145Y-140378889D01*
X56378934Y-140385272D01*
X56378704Y-140391700D01*
X56379040Y-140396575D01*
X56414953Y-140868871D01*
X56416062Y-140875192D01*
X56416156Y-140881602D01*
X56416738Y-140886454D01*
X56475880Y-141351881D01*
X56477298Y-141358102D01*
X56477713Y-141364474D01*
X56478539Y-141369291D01*
X56560325Y-141827267D01*
X56562044Y-141833372D01*
X56562773Y-141839678D01*
X56563839Y-141844447D01*
X56667685Y-142294389D01*
X56669695Y-142300364D01*
X56670730Y-142306578D01*
X56672032Y-142311288D01*
X56797353Y-142752607D01*
X56799639Y-142758424D01*
X56800971Y-142764537D01*
X56802505Y-142769177D01*
X56948716Y-143201293D01*
X56951269Y-143206949D01*
X56952887Y-143212937D01*
X56954648Y-143217496D01*
X57121167Y-143639825D01*
X57123972Y-143645303D01*
X57125867Y-143651159D01*
X57127849Y-143655626D01*
X57314091Y-144067580D01*
X57317137Y-144072872D01*
X57319297Y-144078581D01*
X57321494Y-144082947D01*
X57478239Y-144388990D01*
X56704748Y-144670518D01*
X56566236Y-144350141D01*
X56390310Y-143859306D01*
X56243280Y-143356411D01*
X56123722Y-142843263D01*
X56030183Y-142321658D01*
X55961212Y-141793500D01*
X55915317Y-141260653D01*
X55890989Y-140725145D01*
X55886714Y-140188826D01*
X55900912Y-139653691D01*
X55932035Y-139121769D01*
X55978487Y-138594880D01*
X56038660Y-138075036D01*
X56110927Y-137564280D01*
X56193683Y-137064407D01*
X56285281Y-136577472D01*
X56384096Y-136105317D01*
X56488472Y-135649937D01*
X56596745Y-135213323D01*
X56601901Y-135193918D01*
X56866747Y-135346827D01*
X56969199Y-135319375D01*
X57431699Y-134518301D01*
X57414378Y-134508301D01*
X57464378Y-134421699D01*
X57481699Y-134431699D01*
X57944199Y-133630625D01*
X57916747Y-133528173D01*
X57509323Y-133292947D01*
X57458145Y-133263399D01*
X57402186Y-133244404D01*
X57343596Y-133236691D01*
X57284629Y-133240556D01*
X57227548Y-133255851D01*
X57174547Y-133281988D01*
X57170550Y-133285055D01*
X57216339Y-133150886D01*
X57279401Y-133194715D01*
X57360270Y-133230046D01*
X57446460Y-133248996D01*
X57534691Y-133250844D01*
X57621599Y-133235520D01*
X57703876Y-133203607D01*
X57778388Y-133156320D01*
X57842296Y-133095462D01*
X57893166Y-133023349D01*
X57929060Y-132942729D01*
X57930308Y-132937238D01*
X57969348Y-132936897D01*
X58442462Y-132455453D01*
X58428197Y-132441435D01*
X58498288Y-132370109D01*
X58512553Y-132384128D01*
X58512553Y-132384128D01*
G37*
X58512553Y-132384128D02*
X58525970Y-132370475D01*
X58594492Y-132443418D01*
X58583878Y-132454219D01*
X58598143Y-132468237D01*
X58528052Y-132539563D01*
X58513787Y-132525544D01*
X58040673Y-133006988D01*
X58041599Y-133113050D01*
X58626225Y-133687561D01*
X58575051Y-133746638D01*
X58571618Y-133751487D01*
X58567452Y-133755717D01*
X58564405Y-133759538D01*
X58487340Y-133857606D01*
X58133253Y-133653173D01*
X58030801Y-133680625D01*
X57568301Y-134481699D01*
X57585622Y-134491699D01*
X57535622Y-134578301D01*
X57518301Y-134568301D01*
X57055801Y-135369375D01*
X57083253Y-135471827D01*
X57357308Y-135630053D01*
X57321494Y-135699979D01*
X57319254Y-135705659D01*
X57316135Y-135710907D01*
X57314091Y-135715346D01*
X57127849Y-136127300D01*
X57125874Y-136133127D01*
X57122991Y-136138567D01*
X57121167Y-136143101D01*
X56954648Y-136565430D01*
X56952947Y-136571395D01*
X56950315Y-136577015D01*
X56948716Y-136581633D01*
X56802505Y-137013749D01*
X56801088Y-137019842D01*
X56798721Y-137025627D01*
X56797353Y-137030319D01*
X56672032Y-137471638D01*
X56670911Y-137477835D01*
X56668817Y-137483783D01*
X56667685Y-137488537D01*
X56563839Y-137938477D01*
X56563022Y-137944770D01*
X56561217Y-137950854D01*
X56560325Y-137955658D01*
X56478539Y-138413635D01*
X56478035Y-138419998D01*
X56476530Y-138426201D01*
X56475880Y-138431045D01*
X56416738Y-138896471D01*
X56416554Y-138902882D01*
X56415358Y-138909184D01*
X56414953Y-138914054D01*
X56379040Y-139386350D01*
X56379181Y-139392784D01*
X56378303Y-139399151D01*
X56378145Y-139404036D01*
X56366038Y-139882612D01*
X56366503Y-139889020D01*
X56365948Y-139895428D01*
X56366038Y-139900314D01*
X56378145Y-140378889D01*
X56378934Y-140385272D01*
X56378704Y-140391700D01*
X56379040Y-140396575D01*
X56414953Y-140868871D01*
X56416062Y-140875192D01*
X56416156Y-140881602D01*
X56416738Y-140886454D01*
X56475880Y-141351881D01*
X56477298Y-141358102D01*
X56477713Y-141364474D01*
X56478539Y-141369291D01*
X56560325Y-141827267D01*
X56562044Y-141833372D01*
X56562773Y-141839678D01*
X56563839Y-141844447D01*
X56667685Y-142294389D01*
X56669695Y-142300364D01*
X56670730Y-142306578D01*
X56672032Y-142311288D01*
X56797353Y-142752607D01*
X56799639Y-142758424D01*
X56800971Y-142764537D01*
X56802505Y-142769177D01*
X56948716Y-143201293D01*
X56951269Y-143206949D01*
X56952887Y-143212937D01*
X56954648Y-143217496D01*
X57121167Y-143639825D01*
X57123972Y-143645303D01*
X57125867Y-143651159D01*
X57127849Y-143655626D01*
X57314091Y-144067580D01*
X57317137Y-144072872D01*
X57319297Y-144078581D01*
X57321494Y-144082947D01*
X57478239Y-144388990D01*
X56704748Y-144670518D01*
X56566236Y-144350141D01*
X56390310Y-143859306D01*
X56243280Y-143356411D01*
X56123722Y-142843263D01*
X56030183Y-142321658D01*
X55961212Y-141793500D01*
X55915317Y-141260653D01*
X55890989Y-140725145D01*
X55886714Y-140188826D01*
X55900912Y-139653691D01*
X55932035Y-139121769D01*
X55978487Y-138594880D01*
X56038660Y-138075036D01*
X56110927Y-137564280D01*
X56193683Y-137064407D01*
X56285281Y-136577472D01*
X56384096Y-136105317D01*
X56488472Y-135649937D01*
X56596745Y-135213323D01*
X56601901Y-135193918D01*
X56866747Y-135346827D01*
X56969199Y-135319375D01*
X57431699Y-134518301D01*
X57414378Y-134508301D01*
X57464378Y-134421699D01*
X57481699Y-134431699D01*
X57944199Y-133630625D01*
X57916747Y-133528173D01*
X57509323Y-133292947D01*
X57458145Y-133263399D01*
X57402186Y-133244404D01*
X57343596Y-133236691D01*
X57284629Y-133240556D01*
X57227548Y-133255851D01*
X57174547Y-133281988D01*
X57170550Y-133285055D01*
X57216339Y-133150886D01*
X57279401Y-133194715D01*
X57360270Y-133230046D01*
X57446460Y-133248996D01*
X57534691Y-133250844D01*
X57621599Y-133235520D01*
X57703876Y-133203607D01*
X57778388Y-133156320D01*
X57842296Y-133095462D01*
X57893166Y-133023349D01*
X57929060Y-132942729D01*
X57930308Y-132937238D01*
X57969348Y-132936897D01*
X58442462Y-132455453D01*
X58428197Y-132441435D01*
X58498288Y-132370109D01*
X58512553Y-132384128D01*
G36*
X74035251Y-132936898D02*
X74141313Y-132937824D01*
X74163719Y-132915806D01*
X74165340Y-132924637D01*
X74197826Y-133006689D01*
X74245632Y-133080869D01*
X74306935Y-133144350D01*
X74379401Y-133194715D01*
X74460270Y-133230046D01*
X74546460Y-133248996D01*
X74582088Y-133249742D01*
X74541855Y-133263399D01*
X74490677Y-133292947D01*
X74083253Y-133528173D01*
X74055801Y-133630625D01*
X74518301Y-134431699D01*
X74535622Y-134421699D01*
X74585622Y-134508301D01*
X74568301Y-134518301D01*
X75030801Y-135319375D01*
X75133253Y-135346827D01*
X75464378Y-135155651D01*
X75482705Y-135221868D01*
X75595492Y-135658848D01*
X75704045Y-136114351D01*
X75806670Y-136586598D01*
X75901626Y-137073582D01*
X75987189Y-137573333D01*
X76061642Y-138083934D01*
X76123281Y-138603425D01*
X76170414Y-139129865D01*
X76201345Y-139661184D01*
X76214422Y-140195503D01*
X76207978Y-140730853D01*
X76180394Y-141265250D01*
X76130067Y-141796706D01*
X76055409Y-142323377D01*
X75954880Y-142843255D01*
X75826933Y-143354559D01*
X75670052Y-143855438D01*
X75482707Y-144344182D01*
X75326704Y-144681965D01*
X74548618Y-144398765D01*
X74710371Y-144082947D01*
X74712610Y-144077268D01*
X74715731Y-144072018D01*
X74717775Y-144067579D01*
X74904016Y-143655625D01*
X74905991Y-143649800D01*
X74908874Y-143644359D01*
X74910698Y-143639825D01*
X75077217Y-143217495D01*
X75078918Y-143211532D01*
X75081550Y-143205911D01*
X75083149Y-143201293D01*
X75229360Y-142769176D01*
X75230777Y-142763085D01*
X75233144Y-142757299D01*
X75234512Y-142752607D01*
X75359833Y-142311288D01*
X75360955Y-142305087D01*
X75363047Y-142299144D01*
X75364180Y-142294390D01*
X75468027Y-141844448D01*
X75468844Y-141838156D01*
X75470649Y-141832071D01*
X75471541Y-141827266D01*
X75553326Y-141369291D01*
X75553830Y-141362928D01*
X75555335Y-141356725D01*
X75555985Y-141351881D01*
X75615127Y-140886453D01*
X75615311Y-140880043D01*
X75616507Y-140873741D01*
X75616912Y-140868871D01*
X75652824Y-140396576D01*
X75652684Y-140390147D01*
X75653562Y-140383774D01*
X75653720Y-140378889D01*
X75665827Y-139900315D01*
X75665362Y-139893907D01*
X75665917Y-139887498D01*
X75665827Y-139882611D01*
X75653720Y-139404036D01*
X75652931Y-139397653D01*
X75653161Y-139391225D01*
X75652824Y-139386349D01*
X75616912Y-138914054D01*
X75615803Y-138907733D01*
X75615709Y-138901324D01*
X75615127Y-138896471D01*
X75555985Y-138431045D01*
X75554567Y-138424824D01*
X75554152Y-138418452D01*
X75553326Y-138413636D01*
X75471541Y-137955659D01*
X75469822Y-137949555D01*
X75469093Y-137943247D01*
X75468027Y-137938477D01*
X75364180Y-137488536D01*
X75362169Y-137482560D01*
X75361135Y-137476349D01*
X75359833Y-137471638D01*
X75234512Y-137030319D01*
X75232226Y-137024501D01*
X75230894Y-137018390D01*
X75229360Y-137013750D01*
X75083149Y-136581633D01*
X75080596Y-136575977D01*
X75078978Y-136569989D01*
X75077217Y-136565431D01*
X74910698Y-136143101D01*
X74907894Y-136137627D01*
X74905999Y-136131768D01*
X74904016Y-136127301D01*
X74717775Y-135715347D01*
X74714731Y-135710059D01*
X74712569Y-135704344D01*
X74710371Y-135699979D01*
X74667285Y-135615854D01*
X74916747Y-135471827D01*
X74944199Y-135369375D01*
X74481699Y-134568301D01*
X74464378Y-134578301D01*
X74414378Y-134491699D01*
X74431699Y-134481699D01*
X73969199Y-133680625D01*
X73866747Y-133653173D01*
X73534580Y-133844950D01*
X73467460Y-133759538D01*
X73463352Y-133755249D01*
X73459988Y-133750354D01*
X73456814Y-133746638D01*
X73393103Y-133673088D01*
X73963000Y-133113051D01*
X73963926Y-133006989D01*
X73533157Y-132568636D01*
X73612358Y-132506559D01*
X74035251Y-132936898D01*
X74035251Y-132936898D01*
G37*
X74035251Y-132936898D02*
X74141313Y-132937824D01*
X74163719Y-132915806D01*
X74165340Y-132924637D01*
X74197826Y-133006689D01*
X74245632Y-133080869D01*
X74306935Y-133144350D01*
X74379401Y-133194715D01*
X74460270Y-133230046D01*
X74546460Y-133248996D01*
X74582088Y-133249742D01*
X74541855Y-133263399D01*
X74490677Y-133292947D01*
X74083253Y-133528173D01*
X74055801Y-133630625D01*
X74518301Y-134431699D01*
X74535622Y-134421699D01*
X74585622Y-134508301D01*
X74568301Y-134518301D01*
X75030801Y-135319375D01*
X75133253Y-135346827D01*
X75464378Y-135155651D01*
X75482705Y-135221868D01*
X75595492Y-135658848D01*
X75704045Y-136114351D01*
X75806670Y-136586598D01*
X75901626Y-137073582D01*
X75987189Y-137573333D01*
X76061642Y-138083934D01*
X76123281Y-138603425D01*
X76170414Y-139129865D01*
X76201345Y-139661184D01*
X76214422Y-140195503D01*
X76207978Y-140730853D01*
X76180394Y-141265250D01*
X76130067Y-141796706D01*
X76055409Y-142323377D01*
X75954880Y-142843255D01*
X75826933Y-143354559D01*
X75670052Y-143855438D01*
X75482707Y-144344182D01*
X75326704Y-144681965D01*
X74548618Y-144398765D01*
X74710371Y-144082947D01*
X74712610Y-144077268D01*
X74715731Y-144072018D01*
X74717775Y-144067579D01*
X74904016Y-143655625D01*
X74905991Y-143649800D01*
X74908874Y-143644359D01*
X74910698Y-143639825D01*
X75077217Y-143217495D01*
X75078918Y-143211532D01*
X75081550Y-143205911D01*
X75083149Y-143201293D01*
X75229360Y-142769176D01*
X75230777Y-142763085D01*
X75233144Y-142757299D01*
X75234512Y-142752607D01*
X75359833Y-142311288D01*
X75360955Y-142305087D01*
X75363047Y-142299144D01*
X75364180Y-142294390D01*
X75468027Y-141844448D01*
X75468844Y-141838156D01*
X75470649Y-141832071D01*
X75471541Y-141827266D01*
X75553326Y-141369291D01*
X75553830Y-141362928D01*
X75555335Y-141356725D01*
X75555985Y-141351881D01*
X75615127Y-140886453D01*
X75615311Y-140880043D01*
X75616507Y-140873741D01*
X75616912Y-140868871D01*
X75652824Y-140396576D01*
X75652684Y-140390147D01*
X75653562Y-140383774D01*
X75653720Y-140378889D01*
X75665827Y-139900315D01*
X75665362Y-139893907D01*
X75665917Y-139887498D01*
X75665827Y-139882611D01*
X75653720Y-139404036D01*
X75652931Y-139397653D01*
X75653161Y-139391225D01*
X75652824Y-139386349D01*
X75616912Y-138914054D01*
X75615803Y-138907733D01*
X75615709Y-138901324D01*
X75615127Y-138896471D01*
X75555985Y-138431045D01*
X75554567Y-138424824D01*
X75554152Y-138418452D01*
X75553326Y-138413636D01*
X75471541Y-137955659D01*
X75469822Y-137949555D01*
X75469093Y-137943247D01*
X75468027Y-137938477D01*
X75364180Y-137488536D01*
X75362169Y-137482560D01*
X75361135Y-137476349D01*
X75359833Y-137471638D01*
X75234512Y-137030319D01*
X75232226Y-137024501D01*
X75230894Y-137018390D01*
X75229360Y-137013750D01*
X75083149Y-136581633D01*
X75080596Y-136575977D01*
X75078978Y-136569989D01*
X75077217Y-136565431D01*
X74910698Y-136143101D01*
X74907894Y-136137627D01*
X74905999Y-136131768D01*
X74904016Y-136127301D01*
X74717775Y-135715347D01*
X74714731Y-135710059D01*
X74712569Y-135704344D01*
X74710371Y-135699979D01*
X74667285Y-135615854D01*
X74916747Y-135471827D01*
X74944199Y-135369375D01*
X74481699Y-134568301D01*
X74464378Y-134578301D01*
X74414378Y-134491699D01*
X74431699Y-134481699D01*
X73969199Y-133680625D01*
X73866747Y-133653173D01*
X73534580Y-133844950D01*
X73467460Y-133759538D01*
X73463352Y-133755249D01*
X73459988Y-133750354D01*
X73456814Y-133746638D01*
X73393103Y-133673088D01*
X73963000Y-133113051D01*
X73963926Y-133006989D01*
X73533157Y-132568636D01*
X73612358Y-132506559D01*
X74035251Y-132936898D01*
M02*
