G04 #@! TF.FileFunction,Legend,Top*
%FSLAX46Y46*%
G04 Gerber Fmt 4.6, Leading zero omitted, Abs format (unit mm)*
G04 Created by KiCad (PCBNEW 4.0.7-e2-6376~58~ubuntu14.04.1) date Thu May 17 14:08:47 2018*
%MOMM*%
%LPD*%
G01*
G04 APERTURE LIST*
%ADD10C,0.100000*%
%ADD11C,0.150000*%
G04 APERTURE END LIST*
D10*
D11*
X98692820Y-133233975D02*
X98992820Y-133753590D01*
X97307180Y-134033975D02*
X98692820Y-133233975D01*
X97607180Y-134553590D02*
X97307180Y-134033975D01*
X97406226Y-146166077D02*
X97611438Y-145602261D01*
X98909734Y-146713309D02*
X97406226Y-146166077D01*
X99114946Y-146149493D02*
X98909734Y-146713309D01*
X88000000Y-149700000D02*
X88000000Y-150450000D01*
X92000000Y-149700000D02*
X88000000Y-149700000D01*
X92000000Y-150450000D02*
X92000000Y-149700000D01*
X88000000Y-150450000D02*
X92000000Y-150450000D01*
X87400000Y-149400000D02*
X87400000Y-150000000D01*
X85800000Y-149400000D02*
X87400000Y-149400000D01*
X85800000Y-150000000D02*
X85800000Y-149400000D01*
X94200000Y-149400000D02*
X94200000Y-150000000D01*
X92600000Y-149400000D02*
X94200000Y-149400000D01*
X92600000Y-150000000D02*
X92600000Y-149400000D01*
X64500000Y-151850000D02*
X64500000Y-149350000D01*
X67500000Y-151850000D02*
X64500000Y-151850000D01*
X67500000Y-149350000D02*
X67500000Y-151850000D01*
X64500000Y-149350000D02*
X67500000Y-149350000D01*
X81090266Y-146713309D02*
X80885054Y-146149493D01*
X82593774Y-146166077D02*
X81090266Y-146713309D01*
X82388562Y-145602261D02*
X82593774Y-146166077D01*
X82692820Y-134033975D02*
X82392820Y-134553590D01*
X81307180Y-133233975D02*
X82692820Y-134033975D01*
X81007180Y-133753590D02*
X81307180Y-133233975D01*
M02*
