M48
;DRILL file {KiCad 4.0.7-e2-6376~58~ubuntu14.04.1} date Thu May 17 14:08:50 2018
;FORMAT={-:-/ absolute / metric / decimal}
FMAT,2
METRIC,TZ
T1C0.300
T2C0.400
T3C1.000
%
G90
G05
M71
T1
X57.2Y-146.8
X57.5Y-132.8
X58.9Y-146.5
X61.5Y-151.6
X70.5Y-151.6
X73.1Y-146.5
X74.6Y-132.8
X74.8Y-146.8
X81.2Y-146.8
X81.4Y-132.8
X82.9Y-146.5
X85.5Y-151.6
X94.5Y-151.6
X97.1Y-146.5
X98.6Y-132.8
X98.8Y-146.8
T2
X56.9Y-144.2
X61.9Y-148.8
X63.3Y-150.4
X63.307Y-151.643
X64.3Y-151.5
X68.693Y-151.643
X68.714Y-150.459
X70.1Y-148.8
X73.4Y-149.8
X75.2Y-144.2
X80.9Y-144.2
X85.3Y-130.5
X87.7Y-151.5
X87.722Y-149.598
X90.Y-149.6
X92.1Y-150.9
X92.5Y-151.6
X94.5Y-130.6
X94.944Y-129.934
X98.5Y-133.6
X99.1Y-144.2
T3
X58.6Y-149.8
X97.4Y-149.8
T0
M30
