G04 #@! TF.FileFunction,Profile,NP*
%FSLAX46Y46*%
G04 Gerber Fmt 4.6, Leading zero omitted, Abs format (unit mm)*
G04 Created by KiCad (PCBNEW 4.0.7-e2-6376~58~ubuntu14.04.1) date Thu May 17 14:08:47 2018*
%MOMM*%
%LPD*%
G01*
G04 APERTURE LIST*
%ADD10C,0.100000*%
G04 APERTURE END LIST*
D10*
X75492769Y-147517833D02*
X75271424Y-147027827D01*
X75770012Y-147997156D02*
X75492769Y-147517833D01*
X76039834Y-148517461D02*
X75770012Y-147997156D01*
X67890207Y-130780404D02*
X68340148Y-130884250D01*
X67432231Y-130698619D02*
X67890207Y-130780404D01*
X66966804Y-130639476D02*
X67432231Y-130698619D01*
X56823088Y-138475165D02*
X56904874Y-138017188D01*
X56763946Y-138940591D02*
X56823088Y-138475165D01*
X56728033Y-139412887D02*
X56763946Y-138940591D01*
X75144255Y-132980230D02*
X75049409Y-132723859D01*
X75247136Y-133268952D02*
X75144255Y-132980230D01*
X75356308Y-133588126D02*
X75247136Y-133268952D01*
X75470016Y-133935863D02*
X75356308Y-133588126D01*
X62395953Y-148460624D02*
X61983999Y-148274383D01*
X62818281Y-148627144D02*
X62395953Y-148460624D01*
X63250397Y-148773355D02*
X62818281Y-148627144D01*
X70448865Y-148069004D02*
X70047866Y-148274383D01*
X70838320Y-147845072D02*
X70448865Y-148069004D01*
X76045323Y-136036626D02*
X75935194Y-135574510D01*
X76149483Y-136515936D02*
X76045323Y-136036626D01*
X76245926Y-137010544D02*
X76149483Y-136515936D01*
X55849007Y-137003474D02*
X55764958Y-137511156D01*
X55941974Y-136509258D02*
X55849007Y-137003474D01*
X56042194Y-136030389D02*
X55941974Y-136509258D01*
X56148002Y-135568758D02*
X56042194Y-136030389D01*
X56823088Y-141307761D02*
X56763946Y-140842334D01*
X56904874Y-141765737D02*
X56823088Y-141307761D01*
X57008720Y-142215679D02*
X56904874Y-141765737D01*
X62262775Y-152076633D02*
X62722735Y-152028466D01*
X61803619Y-152131139D02*
X62262775Y-152076633D01*
X61345313Y-152191972D02*
X61803619Y-152131139D01*
X75303832Y-140370038D02*
X75267919Y-140842334D01*
X59131903Y-146144573D02*
X58839600Y-145807129D01*
X59439839Y-146467557D02*
X59131903Y-146144573D01*
X59762822Y-146775492D02*
X59439839Y-146467557D01*
X56763353Y-145815725D02*
X56838746Y-146489841D01*
X56455968Y-144977059D02*
X56763353Y-145815725D01*
X56240537Y-144478771D02*
X56455968Y-144977059D01*
X56057307Y-143967559D02*
X56240537Y-144478771D01*
X75126992Y-141765737D02*
X75023145Y-142215679D01*
X75208777Y-141307761D02*
X75126992Y-141765737D01*
X72592026Y-133315369D02*
X72899962Y-133638353D01*
X72269043Y-133007434D02*
X72592026Y-133315369D01*
X71931598Y-132715130D02*
X72269043Y-133007434D01*
X75586509Y-134310262D02*
X75470016Y-133935863D01*
X75704034Y-134709434D02*
X75586509Y-134310262D01*
X75820846Y-135131480D02*
X75704034Y-134709434D01*
X75935194Y-135574510D02*
X75820846Y-135131480D01*
X72400197Y-129921207D02*
X71872794Y-129602341D01*
X72910370Y-130270440D02*
X72400197Y-129921207D01*
X73401733Y-130650043D02*
X72910370Y-130270440D01*
X73872709Y-131060013D02*
X73401733Y-130650043D01*
X57134041Y-142656998D02*
X57008720Y-142215679D01*
X57280252Y-143089114D02*
X57134041Y-142656998D01*
X57446771Y-143511443D02*
X57280252Y-143089114D01*
X67821915Y-151919249D02*
X68287867Y-151947793D01*
X67356209Y-151897151D02*
X67821915Y-151919249D01*
X66890790Y-151881488D02*
X67356209Y-151897151D01*
X56257738Y-135126245D02*
X56148002Y-135568758D01*
X56369735Y-134704735D02*
X56257738Y-135126245D01*
X56482330Y-134306116D02*
X56369735Y-134704735D01*
X56593862Y-133932270D02*
X56482330Y-134306116D01*
X57633013Y-135859529D02*
X57838391Y-135458531D01*
X57446771Y-136271483D02*
X57633013Y-135859529D01*
X57280252Y-136693812D02*
X57446771Y-136271483D01*
X70448865Y-131713922D02*
X70838320Y-131937854D01*
X70047866Y-131508543D02*
X70448865Y-131713922D01*
X69635912Y-131322302D02*
X70047866Y-131508543D01*
X66494508Y-130603563D02*
X66966804Y-130639476D01*
X66015933Y-130591456D02*
X66494508Y-130603563D01*
X65537357Y-130603563D02*
X66015933Y-130591456D01*
X58615964Y-152689295D02*
X58615933Y-152689371D01*
X58225558Y-152703689D02*
X58615964Y-152689295D01*
X57773971Y-152596015D02*
X58225558Y-152703689D01*
X65065061Y-130639476D02*
X65537357Y-130603563D01*
X64599634Y-130698619D02*
X65065061Y-130639476D01*
X64141658Y-130780404D02*
X64599634Y-130698619D01*
X63691717Y-130884250D02*
X64141658Y-130780404D01*
X63250397Y-131009571D02*
X63691717Y-130884250D01*
X62818281Y-131155782D02*
X63250397Y-131009571D01*
X56715926Y-139891463D02*
X56728033Y-139412887D01*
X56728033Y-140370038D02*
X56715926Y-139891463D01*
X56763946Y-140842334D02*
X56728033Y-140370038D01*
X58618216Y-130650043D02*
X58150941Y-131060013D01*
X59106153Y-130270440D02*
X58618216Y-130650043D01*
X59613177Y-129921207D02*
X59106153Y-130270440D01*
X60137704Y-129602341D02*
X59613177Y-129921207D01*
X57275296Y-131993494D02*
X57248203Y-132059556D01*
X57284694Y-131971057D02*
X57275296Y-131993494D01*
X57705908Y-131500350D02*
X57284694Y-131971057D01*
X58150941Y-131060013D02*
X57705908Y-131500350D01*
X71215651Y-147603171D02*
X70838320Y-147845072D01*
X71580271Y-147343882D02*
X71215651Y-147603171D01*
X74585094Y-143511443D02*
X74398853Y-143923397D01*
X74751613Y-143089114D02*
X74585094Y-143511443D01*
X63691717Y-148898675D02*
X63250397Y-148773355D01*
X64141658Y-149002522D02*
X63691717Y-148898675D01*
X64599634Y-149084307D02*
X64141658Y-149002522D01*
X61193545Y-147845072D02*
X60816214Y-147603171D01*
X61583000Y-148069004D02*
X61193545Y-147845072D01*
X61983999Y-148274383D02*
X61583000Y-148069004D01*
X60678156Y-129313845D02*
X60137704Y-129602341D01*
X61232960Y-129055716D02*
X60678156Y-129313845D01*
X61800529Y-128827954D02*
X61232960Y-129055716D01*
X62379288Y-128630562D02*
X61800529Y-128827954D01*
X72592026Y-146467557D02*
X72269043Y-146775492D01*
X72899962Y-146144573D02*
X72592026Y-146467557D01*
X73192265Y-145807129D02*
X72899962Y-146144573D01*
X55582936Y-139096147D02*
X55551183Y-139638843D01*
X55630259Y-138559377D02*
X55582936Y-139096147D01*
X55691487Y-138030419D02*
X55630259Y-138559377D01*
X55764958Y-137511156D02*
X55691487Y-138030419D01*
X74751613Y-136693812D02*
X74897824Y-137125928D01*
X74585094Y-136271483D02*
X74751613Y-136693812D01*
X74398853Y-135859529D02*
X74585094Y-136271483D01*
X66425708Y-151872231D02*
X66890790Y-151881488D01*
X65961006Y-151869409D02*
X66425708Y-151872231D01*
X65496734Y-151872993D02*
X65961006Y-151869409D01*
X58304224Y-145091182D02*
X58062323Y-144713850D01*
X58563513Y-145455801D02*
X58304224Y-145091182D01*
X58839600Y-145807129D02*
X58563513Y-145455801D01*
X75126992Y-138017188D02*
X75208777Y-138475165D01*
X75023145Y-137567247D02*
X75126992Y-138017188D01*
X74897824Y-137125928D02*
X75023145Y-137567247D01*
X62967656Y-128463537D02*
X62379288Y-128630562D01*
X63564056Y-128326880D02*
X62967656Y-128463537D01*
X64166911Y-128220592D02*
X63564056Y-128326880D01*
X64774640Y-128144671D02*
X64166911Y-128220592D01*
X65385663Y-128099118D02*
X64774640Y-128144671D01*
X65998398Y-128083934D02*
X65385663Y-128099118D01*
X66611275Y-128099118D02*
X65998398Y-128083934D01*
X67222709Y-128144671D02*
X66611275Y-128099118D01*
X55566000Y-141283634D02*
X55613162Y-141831185D01*
X55541052Y-140734472D02*
X55566000Y-141283634D01*
X55536677Y-140185578D02*
X55541052Y-140734472D01*
X55551183Y-139638843D02*
X55536677Y-140185578D01*
X63644876Y-151951177D02*
X64106962Y-151922071D01*
X63183452Y-151986647D02*
X63644876Y-151951177D01*
X62722735Y-152028466D02*
X63183452Y-151986647D01*
X60100267Y-147067795D02*
X59762822Y-146775492D01*
X60451594Y-147343882D02*
X60100267Y-147067795D01*
X60816214Y-147603171D02*
X60451594Y-147343882D01*
X56702667Y-133585086D02*
X56593862Y-133932270D01*
X56807081Y-133266443D02*
X56702667Y-133585086D01*
X56905441Y-132978229D02*
X56807081Y-133266443D01*
X56996082Y-132722327D02*
X56905441Y-132978229D01*
X69213584Y-131155782D02*
X69635912Y-131322302D01*
X68781468Y-131009571D02*
X69213584Y-131155782D01*
X68340148Y-130884250D02*
X68781468Y-131009571D01*
X59521517Y-152498409D02*
X59975959Y-152412351D01*
X59068160Y-152590752D02*
X59521517Y-152498409D01*
X58615933Y-152689371D02*
X59068160Y-152590752D01*
X57633013Y-143923397D02*
X57446771Y-143511443D01*
X57838391Y-144324395D02*
X57633013Y-143923397D01*
X58062323Y-144713850D02*
X57838391Y-144324395D01*
X76557870Y-140741985D02*
X76564474Y-140193342D01*
X76529543Y-141290769D02*
X76557870Y-140741985D01*
X76477741Y-141837800D02*
X76529543Y-141290769D01*
X71580271Y-132439044D02*
X71931598Y-132715130D01*
X71215651Y-132179755D02*
X71580271Y-132439044D01*
X70838320Y-131937854D02*
X71215651Y-132179755D01*
X67890207Y-149002522D02*
X67432231Y-149084307D01*
X68340148Y-148898675D02*
X67890207Y-149002522D01*
X68781468Y-148773355D02*
X68340148Y-148898675D01*
X74193474Y-144324395D02*
X73969542Y-144713850D01*
X74398853Y-143923397D02*
X74193474Y-144324395D01*
X74193474Y-135458531D02*
X74398853Y-135859529D01*
X73969542Y-135069075D02*
X74193474Y-135458531D01*
X73727641Y-134691744D02*
X73969542Y-135069075D01*
X76238919Y-149130414D02*
X76039834Y-148517461D01*
X76303949Y-149887678D02*
X76238919Y-149130414D01*
X76203339Y-150527157D02*
X76303949Y-149887678D01*
X69213584Y-148627144D02*
X68781468Y-148773355D01*
X69635912Y-148460624D02*
X69213584Y-148627144D01*
X70047866Y-148274383D02*
X69635912Y-148460624D01*
X60887904Y-152259121D02*
X61345313Y-152191972D01*
X60431435Y-152332586D02*
X60887904Y-152259121D01*
X59975959Y-152412351D02*
X60431435Y-152332586D01*
X60100267Y-132715130D02*
X60451594Y-132439044D01*
X59762822Y-133007434D02*
X60100267Y-132715130D01*
X59439839Y-133315369D02*
X59762822Y-133007434D01*
X61193545Y-131937854D02*
X61583000Y-131713922D01*
X60816214Y-132179755D02*
X61193545Y-131937854D01*
X60451594Y-132439044D02*
X60816214Y-132179755D01*
X75249691Y-145809107D02*
X75575937Y-144977065D01*
X75169294Y-146475473D02*
X75249691Y-145809107D01*
X75271424Y-147027827D02*
X75169294Y-146475473D01*
X72018576Y-152409034D02*
X72484604Y-152495928D01*
X71552371Y-152328658D02*
X72018576Y-152409034D01*
X71086035Y-152254792D02*
X71552371Y-152328658D01*
X75960524Y-151104448D02*
X76203339Y-150527157D01*
X75609405Y-151609324D02*
X75960524Y-151104448D01*
X75183890Y-152031545D02*
X75609405Y-151609324D01*
X70202984Y-128827954D02*
X69622445Y-128630562D01*
X70772607Y-129055716D02*
X70202984Y-128827954D01*
X71329737Y-129313845D02*
X70772607Y-129055716D01*
X71872794Y-129602341D02*
X71329737Y-129313845D01*
X57295963Y-152375379D02*
X57773971Y-152596015D01*
X56826286Y-152050897D02*
X57295963Y-152375379D01*
X56399699Y-151631667D02*
X56826286Y-152050897D01*
X56050957Y-151126803D02*
X56399699Y-151631667D01*
X74321716Y-131500350D02*
X73872709Y-131060013D01*
X74747174Y-131971057D02*
X74321716Y-131500350D01*
X74757024Y-131993550D02*
X74747174Y-131971057D01*
X74785418Y-132059757D02*
X74757024Y-131993550D01*
X65065061Y-149143450D02*
X64599634Y-149084307D01*
X65537357Y-149179362D02*
X65065061Y-149143450D01*
X66015933Y-149191470D02*
X65537357Y-149179362D01*
X76000780Y-143970497D02*
X76163986Y-143449424D01*
X75805347Y-144480343D02*
X76000780Y-143970497D01*
X75575937Y-144977065D02*
X75805347Y-144480343D01*
X55814813Y-150545405D02*
X56050957Y-151126803D01*
X55726026Y-149896582D02*
X55814813Y-150545405D01*
X55802559Y-149153172D02*
X55726026Y-149896582D01*
X56001390Y-148547094D02*
X55802559Y-149153172D01*
X70619612Y-152187425D02*
X71086035Y-152254792D01*
X70153152Y-152126550D02*
X70619612Y-152187425D01*
X69686701Y-152072157D02*
X70153152Y-152126550D01*
X76332902Y-137518553D02*
X76245926Y-137010544D01*
X76408656Y-138038073D02*
X76332902Y-137518553D01*
X76471439Y-138567206D02*
X76408656Y-138038073D01*
X58304224Y-134691744D02*
X58563513Y-134327124D01*
X58062323Y-135069075D02*
X58304224Y-134691744D01*
X57838391Y-135458531D02*
X58062323Y-135069075D01*
X65032938Y-151882955D02*
X65496734Y-151872993D01*
X64569668Y-151899324D02*
X65032938Y-151882955D01*
X64106962Y-151922071D02*
X64569668Y-151899324D01*
X74830607Y-132167786D02*
X74785418Y-132059757D01*
X74890834Y-132315741D02*
X74830607Y-132167786D01*
X74964353Y-132501731D02*
X74890834Y-132315741D01*
X75049409Y-132723859D02*
X74964353Y-132501731D01*
X73468352Y-145455801D02*
X73192265Y-145807129D01*
X73727641Y-145091182D02*
X73468352Y-145455801D01*
X73969542Y-144713850D02*
X73727641Y-145091182D01*
X57134041Y-137125928D02*
X57280252Y-136693812D01*
X57008720Y-137567247D02*
X57134041Y-137125928D01*
X56904874Y-138017188D02*
X57008720Y-137567247D01*
X73415935Y-152689304D02*
X73800000Y-152700000D01*
X72950403Y-152589349D02*
X73415935Y-152689304D01*
X72484604Y-152495928D02*
X72950403Y-152589349D01*
X73468352Y-134327124D02*
X73727641Y-134691744D01*
X73192265Y-133975797D02*
X73468352Y-134327124D01*
X72899962Y-133638353D02*
X73192265Y-133975797D01*
X57077342Y-132500625D02*
X56996082Y-132722327D01*
X57147559Y-132315007D02*
X57077342Y-132500625D01*
X57205068Y-132167354D02*
X57147559Y-132315007D01*
X57248203Y-132059556D02*
X57205068Y-132167354D01*
X75315939Y-139891463D02*
X75303832Y-140370038D01*
X67831121Y-128220592D02*
X67222709Y-128144671D01*
X68434933Y-128326880D02*
X67831121Y-128220592D01*
X69032566Y-128463537D02*
X68434933Y-128326880D01*
X69622445Y-128630562D02*
X69032566Y-128463537D01*
X74897824Y-142656998D02*
X74751613Y-143089114D01*
X75023145Y-142215679D02*
X74897824Y-142656998D01*
X66494508Y-149179362D02*
X66015933Y-149191470D01*
X66966804Y-149143450D02*
X66494508Y-149179362D01*
X67432231Y-149084307D02*
X66966804Y-149143450D01*
X55904619Y-143445310D02*
X56057307Y-143967559D01*
X55780808Y-142913908D02*
X55904619Y-143445310D01*
X55684209Y-142375239D02*
X55780808Y-142913908D01*
X55613162Y-141831185D02*
X55684209Y-142375239D01*
X71931598Y-147067795D02*
X71580271Y-147343882D01*
X72269043Y-146775492D02*
X71931598Y-147067795D01*
X62395953Y-131322302D02*
X62818281Y-131155782D01*
X61983999Y-131508543D02*
X62395953Y-131322302D01*
X61583000Y-131713922D02*
X61983999Y-131508543D01*
X75303832Y-139412887D02*
X75315939Y-139891463D01*
X75267919Y-138940591D02*
X75303832Y-139412887D01*
X75208777Y-138475165D02*
X75267919Y-138940591D01*
X56263473Y-148028037D02*
X56001390Y-148547094D01*
X56529761Y-147545682D02*
X56263473Y-148028037D01*
X56741199Y-147049722D02*
X56529761Y-147545682D01*
X56838746Y-146489841D02*
X56741199Y-147049722D01*
X59131903Y-133638353D02*
X59439839Y-133315369D01*
X58839600Y-133975797D02*
X59131903Y-133638353D01*
X58563513Y-134327124D02*
X58839600Y-133975797D01*
X76519504Y-139104057D02*
X76471439Y-138567206D01*
X76551096Y-139646734D02*
X76519504Y-139104057D01*
X76564474Y-140193342D02*
X76551096Y-139646734D01*
X69220306Y-152024239D02*
X69686701Y-152072157D01*
X68754010Y-151982789D02*
X69220306Y-152024239D01*
X68287867Y-151947793D02*
X68754010Y-151982789D01*
X76400714Y-142381182D02*
X76477741Y-141837800D01*
X76296712Y-142919022D02*
X76400714Y-142381182D01*
X76163986Y-143449424D02*
X76296712Y-142919022D01*
X75267919Y-140842334D02*
X75208777Y-141307761D01*
X74717879Y-152360887D02*
X75183890Y-152031545D01*
X74245281Y-152587117D02*
X74717879Y-152360887D01*
X73800000Y-152700000D02*
X74245281Y-152587117D01*
X95577530Y-147356082D02*
X95212910Y-147615371D01*
X100301208Y-149899878D02*
X100236178Y-149142614D01*
X81444030Y-143523643D02*
X81277511Y-143101314D01*
X89534616Y-130615763D02*
X90013192Y-130603656D01*
X99020404Y-137579447D02*
X99124251Y-138029388D01*
X80823545Y-152063097D02*
X81293222Y-152387579D01*
X80396958Y-151643867D02*
X80823545Y-152063097D01*
X80048216Y-151139003D02*
X80396958Y-151643867D01*
X99932453Y-135586710D02*
X99818105Y-135143680D01*
X84428694Y-152344786D02*
X84885163Y-152271321D01*
X86719994Y-152040666D02*
X87180711Y-151998847D01*
X83065419Y-152602952D02*
X83518776Y-152510609D01*
X93633171Y-131334502D02*
X94045125Y-131520743D01*
X92751269Y-151994989D02*
X93217565Y-152036439D01*
X81005979Y-137579447D02*
X81131300Y-137138128D01*
X82059582Y-144726050D02*
X81835650Y-144336595D01*
X96589285Y-146479757D02*
X96266302Y-146787692D01*
X96266302Y-133019634D02*
X96589285Y-133327569D01*
X97869968Y-131072213D02*
X97398992Y-130662243D01*
X98318975Y-131512550D02*
X97869968Y-131072213D01*
X82059582Y-135081275D02*
X82301483Y-134703944D01*
X99353567Y-133600326D02*
X99244395Y-133281152D01*
X81277511Y-136706012D02*
X81444030Y-136283683D01*
X99046668Y-132736059D02*
X98961612Y-132513931D01*
X89030197Y-151895155D02*
X89493993Y-151885193D01*
X79812072Y-150557605D02*
X80048216Y-151139003D01*
X79723285Y-149908782D02*
X79812072Y-150557605D01*
X79799818Y-149165372D02*
X79723285Y-149908782D01*
X81703167Y-131512550D02*
X81281953Y-131983257D01*
X82148200Y-131072213D02*
X81703167Y-131512550D01*
X82615475Y-130662243D02*
X82148200Y-131072213D01*
X85800878Y-152143339D02*
X86260034Y-152088833D01*
X87180711Y-151998847D02*
X87642135Y-151963377D01*
X82560772Y-134339324D02*
X82836859Y-133987997D01*
X92432192Y-128339080D02*
X91828380Y-128232792D01*
X93029825Y-128475737D02*
X92432192Y-128339080D01*
X99124251Y-138029388D02*
X99206036Y-138487365D01*
X89062320Y-130651676D02*
X89534616Y-130615763D01*
X90964063Y-130651676D02*
X91429490Y-130710819D01*
X89958265Y-151881609D02*
X90422967Y-151884431D01*
X98748872Y-136706012D02*
X98895083Y-137138128D01*
X80713185Y-139903663D02*
X80725292Y-139425087D01*
X98782677Y-132071957D02*
X98754283Y-132005750D01*
X98827866Y-132179986D02*
X98782677Y-132071957D01*
X81835650Y-144336595D02*
X81630272Y-143935597D01*
X80820347Y-141319961D02*
X80761205Y-140854534D01*
X84675415Y-129326045D02*
X84134963Y-129614541D01*
X85230219Y-129067916D02*
X84675415Y-129326045D01*
X85797788Y-128840154D02*
X85230219Y-129067916D01*
X100516763Y-139116257D02*
X100468698Y-138579406D01*
X93619704Y-128642762D02*
X93029825Y-128475737D01*
X94200243Y-128840154D02*
X93619704Y-128642762D01*
X94045125Y-131520743D02*
X94446124Y-131726122D01*
X83518776Y-152510609D02*
X83973218Y-152424551D01*
X99265178Y-138952791D02*
X99301091Y-139425087D01*
X99606664Y-151621524D02*
X99957783Y-151116648D01*
X80902133Y-138029388D02*
X81005979Y-137579447D01*
X85190804Y-131950054D02*
X85580259Y-131726122D01*
X94446124Y-148081204D02*
X94045125Y-148286583D01*
X100042582Y-136048826D02*
X99932453Y-135586710D01*
X79533936Y-140197778D02*
X79538311Y-140746672D01*
X79548442Y-139651043D02*
X79533936Y-140197778D01*
X79580195Y-139108347D02*
X79548442Y-139651043D01*
X91819174Y-151931449D02*
X92285126Y-151959993D01*
X94045125Y-148286583D02*
X93633171Y-148472824D01*
X88138917Y-149014722D02*
X87688976Y-148910875D01*
X87561315Y-128339080D02*
X86964915Y-128475737D01*
X88164170Y-128232792D02*
X87561315Y-128339080D01*
X99124251Y-141777937D02*
X99020404Y-142227879D01*
X83103412Y-130282640D02*
X82615475Y-130662243D01*
X83610436Y-129933407D02*
X83103412Y-130282640D01*
X84134963Y-129614541D02*
X83610436Y-129933407D01*
X100200598Y-150539357D02*
X100301208Y-149899878D01*
X96897221Y-133650553D02*
X97189524Y-133987997D01*
X99701293Y-134721634D02*
X99583768Y-134322462D01*
X100293971Y-142931222D02*
X100397973Y-142393382D01*
X80761205Y-138952791D02*
X80820347Y-138487365D01*
X88596893Y-149096507D02*
X88138917Y-149014722D01*
X98190733Y-135470731D02*
X98396112Y-135871729D01*
X79846266Y-137015674D02*
X79762217Y-137523356D01*
X79939233Y-136521458D02*
X79846266Y-137015674D01*
X80039453Y-136042589D02*
X79939233Y-136521458D01*
X84448853Y-147356082D02*
X84097526Y-147079995D01*
X98895083Y-142669198D02*
X98748872Y-143101314D01*
X81245462Y-132071756D02*
X81202327Y-132179554D01*
X81272555Y-132005694D02*
X81245462Y-132071756D01*
X81281953Y-131983257D02*
X81272555Y-132005694D01*
X90964063Y-149155650D02*
X90491767Y-149191562D01*
X99301091Y-140382238D02*
X99265178Y-140854534D01*
X99957783Y-151116648D02*
X100200598Y-150539357D01*
X81005979Y-142227879D02*
X80902133Y-141777937D01*
X88566927Y-151911524D02*
X89030197Y-151895155D01*
X92337407Y-148910875D02*
X91887466Y-149014722D01*
X97465611Y-134339324D02*
X97724900Y-134703944D01*
X88771899Y-128156871D02*
X88164170Y-128232792D01*
X89382922Y-128111318D02*
X88771899Y-128156871D01*
X85981258Y-148286583D02*
X85580259Y-148081204D01*
X88104221Y-151934271D02*
X88566927Y-151911524D01*
X99265178Y-140854534D02*
X99206036Y-141319961D01*
X98888093Y-132327941D02*
X98827866Y-132179986D01*
X98961612Y-132513931D02*
X98888093Y-132327941D01*
X81835650Y-135470731D02*
X82059582Y-135081275D01*
X96015835Y-152421234D02*
X96481863Y-152508128D01*
X99490028Y-147530033D02*
X99268683Y-147040027D01*
X89534616Y-149191562D02*
X89062320Y-149155650D01*
X80479589Y-134318316D02*
X80366994Y-134716935D01*
X80591121Y-133944470D02*
X80479589Y-134318316D01*
X80699926Y-133597286D02*
X80591121Y-133944470D01*
X96907629Y-130282640D02*
X96397456Y-129933407D01*
X97398992Y-130662243D02*
X96907629Y-130282640D01*
X81277511Y-143101314D02*
X81131300Y-142669198D01*
X84097526Y-132727330D02*
X84448853Y-132451244D01*
X82836859Y-133987997D02*
X83129162Y-133650553D01*
X80738458Y-147061922D02*
X80527020Y-147557882D01*
X80836005Y-146502041D02*
X80738458Y-147061922D01*
X80760612Y-145827925D02*
X80836005Y-146502041D01*
X86393212Y-148472824D02*
X85981258Y-148286583D01*
X99166553Y-146487673D02*
X99246950Y-145821307D01*
X81630272Y-143935597D02*
X81444030Y-143523643D01*
X92778727Y-148785555D02*
X92337407Y-148910875D01*
X83973218Y-152424551D02*
X84428694Y-152344786D01*
X98895083Y-137138128D02*
X99020404Y-137579447D01*
X98582353Y-143523643D02*
X98396112Y-143935597D01*
X80725292Y-139425087D02*
X80761205Y-138952791D01*
X92778727Y-131021771D02*
X93210843Y-131167982D01*
X80820347Y-138487365D02*
X80902133Y-138029388D01*
X83760081Y-146787692D02*
X83437098Y-146479757D01*
X80804340Y-133278643D02*
X80699926Y-133597286D01*
X80902700Y-132990429D02*
X80804340Y-133278643D01*
X80993341Y-132734527D02*
X80902700Y-132990429D01*
X98190733Y-144336595D02*
X97966801Y-144726050D01*
X100236178Y-149142614D02*
X100037093Y-148529661D01*
X87688976Y-148910875D02*
X87247656Y-148785555D01*
X86376547Y-128642762D02*
X85797788Y-128840154D01*
X86964915Y-128475737D02*
X86376547Y-128642762D01*
X85981258Y-131520743D02*
X86393212Y-131334502D01*
X99141514Y-132992430D02*
X99046668Y-132736059D01*
X97966801Y-144726050D02*
X97724900Y-145103382D01*
X95870053Y-129614541D02*
X95326996Y-129326045D01*
X96397456Y-129933407D02*
X95870053Y-129614541D01*
X94446124Y-131726122D02*
X94835579Y-131950054D01*
X100243185Y-137022744D02*
X100146742Y-136528136D01*
X97724900Y-145103382D02*
X97465611Y-145468001D01*
X100037093Y-148529661D02*
X99767271Y-148009356D01*
X99573196Y-144989265D02*
X99802606Y-144492543D01*
X94769866Y-129067916D02*
X94200243Y-128840154D01*
X95326996Y-129326045D02*
X94769866Y-129067916D01*
X82836859Y-145819329D02*
X82560772Y-145468001D01*
X86260034Y-152088833D02*
X86719994Y-152040666D01*
X82560772Y-145468001D02*
X82301483Y-145103382D01*
X80145261Y-135580958D02*
X80039453Y-136042589D01*
X80254997Y-135138445D02*
X80145261Y-135580958D01*
X80366994Y-134716935D02*
X80254997Y-135138445D01*
X85342572Y-152204172D02*
X85800878Y-152143339D01*
X81630272Y-135871729D02*
X81835650Y-135470731D01*
X79901878Y-143457510D02*
X80054566Y-143979759D01*
X79778067Y-142926108D02*
X79901878Y-143457510D01*
X79681468Y-142387439D02*
X79778067Y-142926108D01*
X84813473Y-132191955D02*
X85190804Y-131950054D01*
X100330161Y-137530753D02*
X100243185Y-137022744D01*
X88138917Y-130792604D02*
X88596893Y-130710819D01*
X81131300Y-137138128D02*
X81277511Y-136706012D01*
X80453227Y-144989259D02*
X80760612Y-145827925D01*
X80237796Y-144490971D02*
X80453227Y-144989259D01*
X80054566Y-143979759D02*
X80237796Y-144490971D01*
X98744433Y-131983257D02*
X98318975Y-131512550D01*
X98754283Y-132005750D02*
X98744433Y-131983257D01*
X90491767Y-149191562D02*
X90013192Y-149203670D01*
X91353468Y-151909351D02*
X91819174Y-151931449D01*
X95577530Y-132451244D02*
X95928857Y-132727330D01*
X94150411Y-152138750D02*
X94616871Y-152199625D01*
X99020404Y-142227879D02*
X98895083Y-142669198D01*
X79610421Y-141843385D02*
X79681468Y-142387439D01*
X79563259Y-141295834D02*
X79610421Y-141843385D01*
X79538311Y-140746672D02*
X79563259Y-141295834D01*
X99467275Y-133948063D02*
X99353567Y-133600326D01*
X90491767Y-130615763D02*
X90964063Y-130651676D01*
X90013192Y-149203670D02*
X89534616Y-149191562D01*
X93210843Y-148639344D02*
X92778727Y-148785555D01*
X79998649Y-148559294D02*
X79799818Y-149165372D01*
X80260732Y-148040237D02*
X79998649Y-148559294D01*
X80527020Y-147557882D02*
X80260732Y-148040237D01*
X97724900Y-134703944D02*
X97966801Y-135081275D01*
X95083294Y-152266992D02*
X95549630Y-152340858D01*
X87247656Y-148785555D02*
X86815540Y-148639344D01*
X95212910Y-132191955D02*
X95577530Y-132451244D01*
X85580259Y-148081204D02*
X85190804Y-147857272D01*
X95928857Y-147079995D02*
X95577530Y-147356082D01*
X99583768Y-134322462D02*
X99467275Y-133948063D01*
X96481863Y-152508128D02*
X96947662Y-152601549D01*
X84448853Y-132451244D02*
X84813473Y-132191955D01*
X86815540Y-131167982D02*
X87247656Y-131021771D01*
X97189524Y-133987997D02*
X97465611Y-134339324D01*
X99313198Y-139903663D02*
X99301091Y-140382238D01*
X84813473Y-147615371D02*
X84448853Y-147356082D01*
X99802606Y-144492543D02*
X99998039Y-143982697D01*
X96266302Y-146787692D02*
X95928857Y-147079995D01*
X99998039Y-143982697D02*
X100161245Y-143461624D01*
X99181149Y-152043745D02*
X99606664Y-151621524D01*
X90422967Y-151884431D02*
X90888049Y-151893688D01*
X85580259Y-131726122D02*
X85981258Y-131520743D01*
X99206036Y-141319961D02*
X99124251Y-141777937D01*
X99818105Y-135143680D02*
X99701293Y-134721634D01*
X81074601Y-132512825D02*
X80993341Y-132734527D01*
X81144818Y-132327207D02*
X81074601Y-132512825D01*
X81202327Y-132179554D02*
X81144818Y-132327207D01*
X82613223Y-152701495D02*
X82613192Y-152701571D01*
X91887466Y-149014722D02*
X91429490Y-149096507D01*
X84097526Y-147079995D02*
X83760081Y-146787692D01*
X99244395Y-133281152D02*
X99141514Y-132992430D01*
X98242540Y-152599317D02*
X98715138Y-152373087D01*
X93633171Y-148472824D02*
X93210843Y-148639344D01*
X87688976Y-130896450D02*
X88138917Y-130792604D01*
X99767271Y-148009356D02*
X99490028Y-147530033D01*
X100146742Y-136528136D02*
X100042582Y-136048826D01*
X92285126Y-151959993D02*
X92751269Y-151994989D01*
X96589285Y-133327569D02*
X96897221Y-133650553D01*
X97413194Y-152701504D02*
X97797259Y-152712200D01*
X80761205Y-140854534D02*
X80725292Y-140382238D01*
X98748872Y-143101314D02*
X98582353Y-143523643D01*
X99206036Y-138487365D02*
X99265178Y-138952791D01*
X88596893Y-130710819D02*
X89062320Y-130651676D01*
X81444030Y-136283683D02*
X81630272Y-135871729D01*
X100468698Y-138579406D02*
X100405915Y-138050273D01*
X83129162Y-146156773D02*
X82836859Y-145819329D01*
X97189524Y-145819329D02*
X96897221Y-146156773D01*
X97966801Y-135081275D02*
X98190733Y-135470731D01*
X100555129Y-140754185D02*
X100561733Y-140205542D01*
X100161245Y-143461624D02*
X100293971Y-142931222D01*
X93217565Y-152036439D02*
X93683960Y-152084357D01*
X83760081Y-133019634D02*
X84097526Y-132727330D01*
X95928857Y-132727330D02*
X96266302Y-133019634D01*
X98582353Y-136283683D02*
X98748872Y-136706012D01*
X100526802Y-141302969D02*
X100555129Y-140754185D01*
X93683960Y-152084357D02*
X94150411Y-152138750D01*
X79627518Y-138571577D02*
X79580195Y-139108347D01*
X79688746Y-138042619D02*
X79627518Y-138571577D01*
X79762217Y-137523356D02*
X79688746Y-138042619D01*
X100397973Y-142393382D02*
X100475000Y-141850000D01*
X99268683Y-147040027D02*
X99166553Y-146487673D01*
X92337407Y-130896450D02*
X92778727Y-131021771D01*
X86815540Y-148639344D02*
X86393212Y-148472824D01*
X90013192Y-130603656D02*
X90491767Y-130615763D01*
X94835579Y-147857272D02*
X94446124Y-148081204D01*
X94616871Y-152199625D02*
X95083294Y-152266992D01*
X97797259Y-152712200D02*
X98242540Y-152599317D01*
X98396112Y-143935597D02*
X98190733Y-144336595D01*
X91219968Y-128156871D02*
X90608534Y-128111318D01*
X91828380Y-128232792D02*
X91219968Y-128156871D01*
X89062320Y-149155650D02*
X88596893Y-149096507D01*
X85190804Y-147857272D02*
X84813473Y-147615371D01*
X98396112Y-135871729D02*
X98582353Y-136283683D01*
X93210843Y-131167982D02*
X93633171Y-131334502D01*
X91429490Y-130710819D02*
X91887466Y-130792604D01*
X89995657Y-128096134D02*
X89382922Y-128111318D01*
X90608534Y-128111318D02*
X89995657Y-128096134D01*
X83129162Y-133650553D02*
X83437098Y-133327569D01*
X87642135Y-151963377D02*
X88104221Y-151934271D01*
X82301483Y-134703944D02*
X82560772Y-134339324D01*
X86393212Y-131334502D02*
X86815540Y-131167982D01*
X84885163Y-152271321D02*
X85342572Y-152204172D01*
X82613192Y-152701571D02*
X83065419Y-152602952D01*
X99246950Y-145821307D02*
X99573196Y-144989265D01*
X100405915Y-138050273D02*
X100330161Y-137530753D01*
X89493993Y-151885193D02*
X89958265Y-151881609D01*
X98715138Y-152373087D02*
X99181149Y-152043745D01*
X91429490Y-149096507D02*
X90964063Y-149155650D01*
X87247656Y-131021771D02*
X87688976Y-130896450D01*
X83437098Y-146479757D02*
X83129162Y-146156773D01*
X94835579Y-131950054D02*
X95212910Y-132191955D01*
X81131300Y-142669198D02*
X81005979Y-142227879D01*
X100548355Y-139658934D02*
X100516763Y-139116257D01*
X80902133Y-141777937D02*
X80820347Y-141319961D01*
X99301091Y-139425087D02*
X99313198Y-139903663D01*
X82301483Y-145103382D02*
X82059582Y-144726050D01*
X95549630Y-152340858D02*
X96015835Y-152421234D01*
X96947662Y-152601549D02*
X97413194Y-152701504D01*
X100561733Y-140205542D02*
X100548355Y-139658934D01*
X90888049Y-151893688D02*
X91353468Y-151909351D01*
X80725292Y-140382238D02*
X80713185Y-139903663D01*
X83437098Y-133327569D02*
X83760081Y-133019634D01*
X95212910Y-147615371D02*
X94835579Y-147857272D01*
X96897221Y-146156773D02*
X96589285Y-146479757D01*
X82222817Y-152715889D02*
X82613223Y-152701495D01*
X81771230Y-152608215D02*
X82222817Y-152715889D01*
X81293222Y-152387579D02*
X81771230Y-152608215D01*
X97465611Y-145468001D02*
X97189524Y-145819329D01*
X91887466Y-130792604D02*
X92337407Y-130896450D01*
X100475000Y-141850000D02*
X100526802Y-141302969D01*
M02*
