G04 #@! TF.FileFunction,Soldermask,Bot*
%FSLAX46Y46*%
G04 Gerber Fmt 4.6, Leading zero omitted, Abs format (unit mm)*
G04 Created by KiCad (PCBNEW 4.0.7-e2-6376~58~ubuntu14.04.1) date Thu May 17 14:08:47 2018*
%MOMM*%
%LPD*%
G01*
G04 APERTURE LIST*
%ADD10C,0.100000*%
%ADD11C,0.300000*%
%ADD12C,0.600000*%
%ADD13R,0.250000X1.200000*%
%ADD14R,1.250000X1.500000*%
%ADD15R,0.800000X0.500000*%
%ADD16C,1.200000*%
%ADD17C,5.800000*%
%ADD18C,1.000000*%
G04 APERTURE END LIST*
D10*
D11*
X98600000Y-132800000D03*
D12*
X98600000Y-132800000D03*
D10*
G36*
X74169207Y-144581468D02*
X75343823Y-145008993D01*
X74830793Y-146418532D01*
X73656177Y-145991007D01*
X74169207Y-144581468D01*
X74169207Y-144581468D01*
G37*
G36*
X59054278Y-133687598D02*
X57271152Y-131935325D01*
X57972062Y-131222074D01*
X59755188Y-132974347D01*
X59054278Y-133687598D01*
X59054278Y-133687598D01*
G37*
G36*
X60610583Y-132281662D02*
X59267334Y-130173183D01*
X60110725Y-129635884D01*
X61453974Y-131744363D01*
X60610583Y-132281662D01*
X60610583Y-132281662D01*
G37*
G36*
X62443266Y-131261852D02*
X61608749Y-128905249D01*
X62551390Y-128571442D01*
X63385907Y-130928045D01*
X62443266Y-131261852D01*
X62443266Y-131261852D01*
G37*
G36*
X64458384Y-130680447D02*
X64175376Y-128196518D01*
X65168948Y-128083315D01*
X65451956Y-130567244D01*
X64458384Y-130680447D01*
X64458384Y-130680447D01*
G37*
G36*
X66552643Y-130567242D02*
X66835651Y-128083313D01*
X67829223Y-128196516D01*
X67546215Y-130680445D01*
X66552643Y-130567242D01*
X66552643Y-130567242D01*
G37*
G36*
X68618692Y-130928046D02*
X69453209Y-128571443D01*
X70395850Y-128905250D01*
X69561333Y-131261853D01*
X68618692Y-130928046D01*
X68618692Y-130928046D01*
G37*
G36*
X70550624Y-131744363D02*
X71893873Y-129635884D01*
X72737264Y-130173183D01*
X71394015Y-132281662D01*
X70550624Y-131744363D01*
X70550624Y-131744363D01*
G37*
D13*
X67000000Y-150700000D03*
X66500000Y-150700000D03*
X66000000Y-150700000D03*
X65500000Y-150700000D03*
X65000000Y-150700000D03*
D14*
X62600000Y-150400000D03*
X69400000Y-150400000D03*
D15*
X90600000Y-151500000D03*
X89400000Y-151500000D03*
D10*
G36*
X72249411Y-132974348D02*
X74032537Y-131222075D01*
X74733447Y-131935326D01*
X72950321Y-133687599D01*
X72249411Y-132974348D01*
X72249411Y-132974348D01*
G37*
G36*
X56656177Y-145008993D02*
X57830793Y-144581468D01*
X58343823Y-145991007D01*
X57169207Y-146418532D01*
X56656177Y-145008993D01*
X56656177Y-145008993D01*
G37*
G36*
X57666266Y-135462019D02*
X56583734Y-134837019D01*
X57333734Y-133537981D01*
X58416266Y-134162981D01*
X57666266Y-135462019D01*
X57666266Y-135462019D01*
G37*
G36*
X75416266Y-134837019D02*
X74333734Y-135462019D01*
X73583734Y-134162981D01*
X74666266Y-133537981D01*
X75416266Y-134837019D01*
X75416266Y-134837019D01*
G37*
D16*
X86190000Y-150365000D03*
X88730000Y-150365000D03*
X91270000Y-150365000D03*
X93810000Y-150365000D03*
D17*
X73400000Y-149800000D03*
D18*
X97400000Y-149800000D03*
D17*
X58600000Y-149800000D03*
D18*
X58600000Y-149800000D03*
D11*
X57200000Y-146800000D03*
X58900000Y-146500000D03*
X73100000Y-146500000D03*
X74800000Y-146800000D03*
X81200000Y-146800000D03*
D12*
X81200000Y-146800000D03*
D11*
X82900000Y-146500000D03*
D12*
X82900000Y-146500000D03*
D11*
X98800000Y-146800000D03*
D12*
X98800000Y-146800000D03*
D11*
X97100000Y-146500000D03*
D12*
X97100000Y-146500000D03*
D11*
X57500000Y-132800000D03*
X74600000Y-132800000D03*
X81400000Y-132800000D03*
D12*
X81400000Y-132800000D03*
D11*
X61500000Y-151600000D03*
X70500000Y-151600000D03*
X85500000Y-151600000D03*
D12*
X85500000Y-151600000D03*
D11*
X94500000Y-151600000D03*
D12*
X94500000Y-151600000D03*
M02*
