G04 #@! TF.FileFunction,Copper,L1,Top,Signal*
%FSLAX46Y46*%
G04 Gerber Fmt 4.6, Leading zero omitted, Abs format (unit mm)*
G04 Created by KiCad (PCBNEW 4.0.7-e2-6376~58~ubuntu14.04.1) date Thu May 17 14:08:47 2018*
%MOMM*%
%LPD*%
G01*
G04 APERTURE LIST*
%ADD10C,0.100000*%
%ADD11C,0.300000*%
%ADD12C,0.140000*%
%ADD13C,0.300000*%
%ADD14R,0.250000X1.200000*%
%ADD15R,1.250000X1.500000*%
%ADD16R,0.800000X1.700000*%
%ADD17C,1.200000*%
%ADD18C,5.800000*%
%ADD19C,1.000000*%
%ADD20C,0.600000*%
%ADD21C,0.200000*%
%ADD22C,0.500000*%
G04 APERTURE END LIST*
D10*
D11*
X56738095Y-151142857D02*
X58261905Y-151142857D01*
X57500000Y-151904762D02*
X57500000Y-150380952D01*
X75261905Y-151142857D02*
X73738095Y-151142857D01*
D12*
X62357143Y-130004762D02*
X62261905Y-130052381D01*
X62071428Y-130052381D01*
X61976190Y-130004762D01*
X61928571Y-129957143D01*
X61880952Y-129861905D01*
X61880952Y-129576190D01*
X61928571Y-129480952D01*
X61976190Y-129433333D01*
X62071428Y-129385714D01*
X62261905Y-129385714D01*
X62357143Y-129433333D01*
X62690476Y-129385714D02*
X62928571Y-130052381D01*
X63166667Y-129385714D02*
X62928571Y-130052381D01*
X62833333Y-130290476D01*
X62785714Y-130338095D01*
X62690476Y-130385714D01*
X63547619Y-130052381D02*
X63547619Y-129052381D01*
X63547619Y-129433333D02*
X63642857Y-129385714D01*
X63833334Y-129385714D01*
X63928572Y-129433333D01*
X63976191Y-129480952D01*
X64023810Y-129576190D01*
X64023810Y-129861905D01*
X63976191Y-129957143D01*
X63928572Y-130004762D01*
X63833334Y-130052381D01*
X63642857Y-130052381D01*
X63547619Y-130004762D01*
X64595238Y-130052381D02*
X64500000Y-130004762D01*
X64452381Y-129957143D01*
X64404762Y-129861905D01*
X64404762Y-129576190D01*
X64452381Y-129480952D01*
X64500000Y-129433333D01*
X64595238Y-129385714D01*
X64738096Y-129385714D01*
X64833334Y-129433333D01*
X64880953Y-129480952D01*
X64928572Y-129576190D01*
X64928572Y-129861905D01*
X64880953Y-129957143D01*
X64833334Y-130004762D01*
X64738096Y-130052381D01*
X64595238Y-130052381D01*
X65357143Y-130052381D02*
X65357143Y-129385714D01*
X65357143Y-129576190D02*
X65404762Y-129480952D01*
X65452381Y-129433333D01*
X65547619Y-129385714D01*
X65642858Y-129385714D01*
X66404763Y-129385714D02*
X66404763Y-130195238D01*
X66357144Y-130290476D01*
X66309525Y-130338095D01*
X66214286Y-130385714D01*
X66071429Y-130385714D01*
X65976191Y-130338095D01*
X66404763Y-130004762D02*
X66309525Y-130052381D01*
X66119048Y-130052381D01*
X66023810Y-130004762D01*
X65976191Y-129957143D01*
X65928572Y-129861905D01*
X65928572Y-129576190D01*
X65976191Y-129480952D01*
X66023810Y-129433333D01*
X66119048Y-129385714D01*
X66309525Y-129385714D01*
X66404763Y-129433333D01*
X67642858Y-130052381D02*
X67642858Y-129385714D01*
X67642858Y-129576190D02*
X67690477Y-129480952D01*
X67738096Y-129433333D01*
X67833334Y-129385714D01*
X67928573Y-129385714D01*
X68261906Y-130052381D02*
X68261906Y-129385714D01*
X68261906Y-129052381D02*
X68214287Y-129100000D01*
X68261906Y-129147619D01*
X68309525Y-129100000D01*
X68261906Y-129052381D01*
X68261906Y-129147619D01*
X68738096Y-129385714D02*
X68738096Y-130052381D01*
X68738096Y-129480952D02*
X68785715Y-129433333D01*
X68880953Y-129385714D01*
X69023811Y-129385714D01*
X69119049Y-129433333D01*
X69166668Y-129528571D01*
X69166668Y-130052381D01*
X70071430Y-129385714D02*
X70071430Y-130195238D01*
X70023811Y-130290476D01*
X69976192Y-130338095D01*
X69880953Y-130385714D01*
X69738096Y-130385714D01*
X69642858Y-130338095D01*
X70071430Y-130004762D02*
X69976192Y-130052381D01*
X69785715Y-130052381D01*
X69690477Y-130004762D01*
X69642858Y-129957143D01*
X69595239Y-129861905D01*
X69595239Y-129576190D01*
X69642858Y-129480952D01*
X69690477Y-129433333D01*
X69785715Y-129385714D01*
X69976192Y-129385714D01*
X70071430Y-129433333D01*
D13*
X98600000Y-132800000D03*
D10*
G36*
X96248777Y-133020211D02*
X98031903Y-131267938D01*
X98732813Y-131981189D01*
X96949687Y-133733462D01*
X96248777Y-133020211D01*
X96248777Y-133020211D01*
G37*
G36*
X99416266Y-134837019D02*
X98333734Y-135462019D01*
X97583734Y-134162981D01*
X98666266Y-133537981D01*
X99416266Y-134837019D01*
X99416266Y-134837019D01*
G37*
G36*
X98169207Y-144581468D02*
X99343823Y-145008993D01*
X98830793Y-146418532D01*
X97656177Y-145991007D01*
X98169207Y-144581468D01*
X98169207Y-144581468D01*
G37*
G36*
X83053644Y-133733462D02*
X81270518Y-131981189D01*
X81971428Y-131267938D01*
X83754554Y-133020211D01*
X83053644Y-133733462D01*
X83053644Y-133733462D01*
G37*
G36*
X84609949Y-132327526D02*
X83266700Y-130219047D01*
X84110091Y-129681748D01*
X85453340Y-131790227D01*
X84609949Y-132327526D01*
X84609949Y-132327526D01*
G37*
G36*
X86442631Y-131307716D02*
X85608114Y-128951113D01*
X86550755Y-128617306D01*
X87385272Y-130973909D01*
X86442631Y-131307716D01*
X86442631Y-131307716D01*
G37*
G36*
X88457749Y-130726309D02*
X88174741Y-128242380D01*
X89168313Y-128129177D01*
X89451321Y-130613106D01*
X88457749Y-130726309D01*
X88457749Y-130726309D01*
G37*
G36*
X90552009Y-130613106D02*
X90835017Y-128129177D01*
X91828589Y-128242380D01*
X91545581Y-130726309D01*
X90552009Y-130613106D01*
X90552009Y-130613106D01*
G37*
G36*
X92618058Y-130973911D02*
X93452575Y-128617308D01*
X94395216Y-128951115D01*
X93560699Y-131307718D01*
X92618058Y-130973911D01*
X92618058Y-130973911D01*
G37*
G36*
X94549991Y-131790227D02*
X95893240Y-129681748D01*
X96736631Y-130219047D01*
X95393382Y-132327526D01*
X94549991Y-131790227D01*
X94549991Y-131790227D01*
G37*
D14*
X89000000Y-150700000D03*
X89500000Y-150700000D03*
X90000000Y-150700000D03*
X90500000Y-150700000D03*
X91000000Y-150700000D03*
D15*
X86600000Y-150400000D03*
X93400000Y-150400000D03*
D16*
X64300000Y-150600000D03*
X67700000Y-150600000D03*
D10*
G36*
X80656177Y-145008993D02*
X81830793Y-144581468D01*
X82343823Y-145991007D01*
X81169207Y-146418532D01*
X80656177Y-145008993D01*
X80656177Y-145008993D01*
G37*
G36*
X81666266Y-135462019D02*
X80583734Y-134837019D01*
X81333734Y-133537981D01*
X82416266Y-134162981D01*
X81666266Y-135462019D01*
X81666266Y-135462019D01*
G37*
D17*
X69810000Y-150365000D03*
X62190000Y-150365000D03*
D18*
X82600000Y-149800000D03*
X97400000Y-149800000D03*
D19*
X97400000Y-149800000D03*
X58600000Y-149800000D03*
D13*
X57200000Y-146800000D03*
D20*
X57200000Y-146800000D03*
D13*
X58900000Y-146500000D03*
D20*
X58900000Y-146500000D03*
D13*
X73100000Y-146500000D03*
D20*
X73100000Y-146500000D03*
D13*
X74800000Y-146800000D03*
D20*
X74800000Y-146800000D03*
D13*
X81200000Y-146800000D03*
X82900000Y-146500000D03*
X98800000Y-146800000D03*
X97100000Y-146500000D03*
X57500000Y-132800000D03*
D20*
X57500000Y-132800000D03*
D13*
X74600000Y-132800000D03*
D20*
X74600000Y-132800000D03*
D13*
X81400000Y-132800000D03*
X61500000Y-151600000D03*
D20*
X61500000Y-151600000D03*
D13*
X70500000Y-151600000D03*
D20*
X70500000Y-151600000D03*
D13*
X85500000Y-151600000D03*
X94500000Y-151600000D03*
D20*
X92500000Y-151600000D03*
X87700000Y-151500000D03*
X61900000Y-148800000D03*
X56900000Y-144200000D03*
X80900000Y-144200000D03*
X87722255Y-149597658D03*
X85300000Y-130500000D03*
X94500000Y-130600000D03*
X99100000Y-144200000D03*
X94943766Y-129934350D03*
X98500000Y-133600000D03*
X92100000Y-150900000D03*
X75200000Y-144200000D03*
X70100000Y-148800000D03*
X68713985Y-150458562D03*
X68692801Y-151643199D03*
X64300000Y-151500000D03*
X63300000Y-150400000D03*
X73400000Y-149800000D03*
X90000000Y-149599998D03*
X63307199Y-151643199D03*
D21*
X89100000Y-151600000D02*
X92500000Y-151600000D01*
X89000000Y-150700000D02*
X89000000Y-151500000D01*
X89000000Y-151500000D02*
X89100000Y-151600000D01*
X87700000Y-151500000D02*
X86600000Y-150400000D01*
X86600000Y-150400000D02*
X83200000Y-150400000D01*
X83200000Y-150400000D02*
X82600000Y-149800000D01*
X60400000Y-148800000D02*
X56900000Y-145300000D01*
X61900000Y-148800000D02*
X60400000Y-148800000D01*
X56900000Y-145300000D02*
X56900000Y-144500000D01*
X56900000Y-144500000D02*
X56900000Y-144200000D01*
X89109656Y-149597658D02*
X88146519Y-149597658D01*
X88146519Y-149597658D02*
X87722255Y-149597658D01*
X89500000Y-149988002D02*
X89109656Y-149597658D01*
X89500000Y-150700000D02*
X89500000Y-149988002D01*
X85300000Y-130500000D02*
X84864657Y-130500000D01*
X84864657Y-130500000D02*
X84360020Y-131004637D01*
X95643311Y-131004637D02*
X94904637Y-131004637D01*
X94904637Y-131004637D02*
X94500000Y-130600000D01*
D22*
X95643311Y-131004637D02*
X97490000Y-132500000D01*
X97490000Y-132500000D02*
X97490795Y-132500700D01*
X82512536Y-132500700D02*
X84370000Y-131000000D01*
X84370000Y-131000000D02*
X84360020Y-131004637D01*
X98500000Y-133600000D02*
X98500000Y-134500000D01*
D21*
X93506637Y-129962513D02*
X94915603Y-129962513D01*
X94915603Y-129962513D02*
X94943766Y-129934350D01*
X91000000Y-150700000D02*
X91900000Y-150700000D01*
X91900000Y-150700000D02*
X92100000Y-150900000D01*
D22*
X86496693Y-129962511D02*
X88800000Y-129430000D01*
X88800000Y-129430000D02*
X91190000Y-129430000D01*
X91190000Y-129430000D02*
X93520000Y-129960000D01*
X93520000Y-129960000D02*
X93506637Y-129962513D01*
D21*
X70100000Y-148800000D02*
X72100000Y-148800000D01*
X74000000Y-145800000D02*
X75200000Y-144600000D01*
X72100000Y-148800000D02*
X74000000Y-146900000D01*
X74000000Y-146900000D02*
X74000000Y-145800000D01*
X75200000Y-144600000D02*
X75200000Y-144200000D01*
X68713985Y-150458562D02*
X67841438Y-150458562D01*
X67841438Y-150458562D02*
X67700000Y-150600000D01*
X68692801Y-151643199D02*
X68692801Y-151482199D01*
X68692801Y-151482199D02*
X69810000Y-150365000D01*
X64300000Y-151500000D02*
X64300000Y-150600000D01*
X63300000Y-150400000D02*
X64100000Y-150400000D01*
X64100000Y-150400000D02*
X64300000Y-150600000D01*
X73400000Y-149800000D02*
X70925127Y-149800000D01*
X70575126Y-149449999D02*
X58950001Y-149449999D01*
X70925127Y-149800000D02*
X70575126Y-149449999D01*
X58950001Y-149449999D02*
X58600000Y-149800000D01*
X90600001Y-149799999D02*
X90200001Y-149799999D01*
X90200001Y-149799999D02*
X90000000Y-149599998D01*
X93400000Y-150400000D02*
X92575000Y-150400000D01*
X92575000Y-150400000D02*
X91974999Y-149799999D01*
X91974999Y-149799999D02*
X90600001Y-149799999D01*
X90600001Y-149799999D02*
X90500000Y-149900000D01*
X90500000Y-149900000D02*
X90500000Y-150700000D01*
X63307199Y-151643199D02*
X63307199Y-151482199D01*
X63307199Y-151482199D02*
X62190000Y-150365000D01*
G36*
X98197826Y-133006689D02*
X98245632Y-133080869D01*
X98306935Y-133144350D01*
X98379401Y-133194715D01*
X98460270Y-133230046D01*
X98546460Y-133248996D01*
X98582088Y-133249742D01*
X98541855Y-133263399D01*
X98490677Y-133292947D01*
X98083253Y-133528173D01*
X98055801Y-133630625D01*
X98518301Y-134431699D01*
X98535622Y-134421699D01*
X98585622Y-134508301D01*
X98568301Y-134518301D01*
X99030801Y-135319375D01*
X99133253Y-135346827D01*
X99459103Y-135158697D01*
X99479964Y-135234068D01*
X99592751Y-135671048D01*
X99701304Y-136126551D01*
X99803929Y-136598798D01*
X99898885Y-137085782D01*
X99984448Y-137585533D01*
X100058901Y-138096134D01*
X100120540Y-138615625D01*
X100167673Y-139142065D01*
X100198604Y-139673384D01*
X100211681Y-140207703D01*
X100205237Y-140743053D01*
X100177653Y-141277450D01*
X100127326Y-141808906D01*
X100052668Y-142335577D01*
X99952139Y-142855455D01*
X99824192Y-143366759D01*
X99667311Y-143867638D01*
X99479966Y-144356382D01*
X99329181Y-144682867D01*
X98551575Y-144399841D01*
X98707630Y-144095147D01*
X98709869Y-144089468D01*
X98712990Y-144084218D01*
X98715034Y-144079779D01*
X98901275Y-143667825D01*
X98903250Y-143662000D01*
X98906133Y-143656559D01*
X98907957Y-143652025D01*
X99074476Y-143229695D01*
X99076177Y-143223732D01*
X99078809Y-143218111D01*
X99080408Y-143213493D01*
X99226619Y-142781376D01*
X99228036Y-142775285D01*
X99230403Y-142769499D01*
X99231771Y-142764807D01*
X99357092Y-142323488D01*
X99358214Y-142317287D01*
X99360306Y-142311344D01*
X99361439Y-142306590D01*
X99465286Y-141856648D01*
X99466103Y-141850356D01*
X99467908Y-141844271D01*
X99468800Y-141839466D01*
X99550585Y-141381491D01*
X99551089Y-141375128D01*
X99552594Y-141368925D01*
X99553244Y-141364081D01*
X99612386Y-140898653D01*
X99612570Y-140892243D01*
X99613766Y-140885941D01*
X99614171Y-140881071D01*
X99650083Y-140408776D01*
X99649943Y-140402347D01*
X99650821Y-140395974D01*
X99650979Y-140391089D01*
X99663086Y-139912515D01*
X99662621Y-139906107D01*
X99663176Y-139899698D01*
X99663086Y-139894811D01*
X99650979Y-139416236D01*
X99650190Y-139409853D01*
X99650420Y-139403425D01*
X99650083Y-139398549D01*
X99614171Y-138926254D01*
X99613062Y-138919933D01*
X99612968Y-138913524D01*
X99612386Y-138908671D01*
X99553244Y-138443245D01*
X99551826Y-138437024D01*
X99551411Y-138430652D01*
X99550585Y-138425836D01*
X99468800Y-137967859D01*
X99467081Y-137961755D01*
X99466352Y-137955447D01*
X99465286Y-137950677D01*
X99361439Y-137500736D01*
X99359428Y-137494760D01*
X99358394Y-137488549D01*
X99357092Y-137483838D01*
X99231771Y-137042519D01*
X99229485Y-137036701D01*
X99228153Y-137030590D01*
X99226619Y-137025950D01*
X99080408Y-136593833D01*
X99077855Y-136588177D01*
X99076237Y-136582189D01*
X99074476Y-136577631D01*
X98907957Y-136155301D01*
X98905153Y-136149827D01*
X98903258Y-136143968D01*
X98901275Y-136139501D01*
X98715034Y-135727547D01*
X98711990Y-135722259D01*
X98709828Y-135716544D01*
X98707630Y-135712179D01*
X98660347Y-135619860D01*
X98916747Y-135471827D01*
X98944199Y-135369375D01*
X98481699Y-134568301D01*
X98464378Y-134578301D01*
X98414378Y-134491699D01*
X98431699Y-134481699D01*
X97969199Y-133680625D01*
X97866747Y-133653173D01*
X97526100Y-133849846D01*
X97464719Y-133771738D01*
X97460611Y-133767449D01*
X97457247Y-133762554D01*
X97454073Y-133758838D01*
X97408034Y-133705689D01*
X98175843Y-132951166D01*
X98197826Y-133006689D01*
X98197826Y-133006689D01*
G37*
X98197826Y-133006689D02*
X98245632Y-133080869D01*
X98306935Y-133144350D01*
X98379401Y-133194715D01*
X98460270Y-133230046D01*
X98546460Y-133248996D01*
X98582088Y-133249742D01*
X98541855Y-133263399D01*
X98490677Y-133292947D01*
X98083253Y-133528173D01*
X98055801Y-133630625D01*
X98518301Y-134431699D01*
X98535622Y-134421699D01*
X98585622Y-134508301D01*
X98568301Y-134518301D01*
X99030801Y-135319375D01*
X99133253Y-135346827D01*
X99459103Y-135158697D01*
X99479964Y-135234068D01*
X99592751Y-135671048D01*
X99701304Y-136126551D01*
X99803929Y-136598798D01*
X99898885Y-137085782D01*
X99984448Y-137585533D01*
X100058901Y-138096134D01*
X100120540Y-138615625D01*
X100167673Y-139142065D01*
X100198604Y-139673384D01*
X100211681Y-140207703D01*
X100205237Y-140743053D01*
X100177653Y-141277450D01*
X100127326Y-141808906D01*
X100052668Y-142335577D01*
X99952139Y-142855455D01*
X99824192Y-143366759D01*
X99667311Y-143867638D01*
X99479966Y-144356382D01*
X99329181Y-144682867D01*
X98551575Y-144399841D01*
X98707630Y-144095147D01*
X98709869Y-144089468D01*
X98712990Y-144084218D01*
X98715034Y-144079779D01*
X98901275Y-143667825D01*
X98903250Y-143662000D01*
X98906133Y-143656559D01*
X98907957Y-143652025D01*
X99074476Y-143229695D01*
X99076177Y-143223732D01*
X99078809Y-143218111D01*
X99080408Y-143213493D01*
X99226619Y-142781376D01*
X99228036Y-142775285D01*
X99230403Y-142769499D01*
X99231771Y-142764807D01*
X99357092Y-142323488D01*
X99358214Y-142317287D01*
X99360306Y-142311344D01*
X99361439Y-142306590D01*
X99465286Y-141856648D01*
X99466103Y-141850356D01*
X99467908Y-141844271D01*
X99468800Y-141839466D01*
X99550585Y-141381491D01*
X99551089Y-141375128D01*
X99552594Y-141368925D01*
X99553244Y-141364081D01*
X99612386Y-140898653D01*
X99612570Y-140892243D01*
X99613766Y-140885941D01*
X99614171Y-140881071D01*
X99650083Y-140408776D01*
X99649943Y-140402347D01*
X99650821Y-140395974D01*
X99650979Y-140391089D01*
X99663086Y-139912515D01*
X99662621Y-139906107D01*
X99663176Y-139899698D01*
X99663086Y-139894811D01*
X99650979Y-139416236D01*
X99650190Y-139409853D01*
X99650420Y-139403425D01*
X99650083Y-139398549D01*
X99614171Y-138926254D01*
X99613062Y-138919933D01*
X99612968Y-138913524D01*
X99612386Y-138908671D01*
X99553244Y-138443245D01*
X99551826Y-138437024D01*
X99551411Y-138430652D01*
X99550585Y-138425836D01*
X99468800Y-137967859D01*
X99467081Y-137961755D01*
X99466352Y-137955447D01*
X99465286Y-137950677D01*
X99361439Y-137500736D01*
X99359428Y-137494760D01*
X99358394Y-137488549D01*
X99357092Y-137483838D01*
X99231771Y-137042519D01*
X99229485Y-137036701D01*
X99228153Y-137030590D01*
X99226619Y-137025950D01*
X99080408Y-136593833D01*
X99077855Y-136588177D01*
X99076237Y-136582189D01*
X99074476Y-136577631D01*
X98907957Y-136155301D01*
X98905153Y-136149827D01*
X98903258Y-136143968D01*
X98901275Y-136139501D01*
X98715034Y-135727547D01*
X98711990Y-135722259D01*
X98709828Y-135716544D01*
X98707630Y-135712179D01*
X98660347Y-135619860D01*
X98916747Y-135471827D01*
X98944199Y-135369375D01*
X98481699Y-134568301D01*
X98464378Y-134578301D01*
X98414378Y-134491699D01*
X98431699Y-134481699D01*
X97969199Y-133680625D01*
X97866747Y-133653173D01*
X97526100Y-133849846D01*
X97464719Y-133771738D01*
X97460611Y-133767449D01*
X97457247Y-133762554D01*
X97454073Y-133758838D01*
X97408034Y-133705689D01*
X98175843Y-132951166D01*
X98197826Y-133006689D01*
G36*
X82597263Y-132485818D02*
X82583244Y-132500083D01*
X82597509Y-132514101D01*
X82527418Y-132585427D01*
X82513153Y-132571408D01*
X82040039Y-133052852D01*
X82040965Y-133158914D01*
X82608701Y-133716827D01*
X82572310Y-133758838D01*
X82568877Y-133763687D01*
X82564711Y-133767917D01*
X82561664Y-133771738D01*
X82492049Y-133860325D01*
X82133253Y-133653173D01*
X82030801Y-133680625D01*
X81568301Y-134481699D01*
X81585622Y-134491699D01*
X81535622Y-134578301D01*
X81518301Y-134568301D01*
X81055801Y-135369375D01*
X81083253Y-135471827D01*
X81360015Y-135631615D01*
X81318753Y-135712179D01*
X81316513Y-135717859D01*
X81313394Y-135723107D01*
X81311350Y-135727546D01*
X81125108Y-136139500D01*
X81123133Y-136145327D01*
X81120250Y-136150767D01*
X81118426Y-136155301D01*
X80951907Y-136577630D01*
X80950206Y-136583595D01*
X80947574Y-136589215D01*
X80945975Y-136593833D01*
X80799764Y-137025949D01*
X80798347Y-137032042D01*
X80795980Y-137037827D01*
X80794612Y-137042519D01*
X80669291Y-137483838D01*
X80668170Y-137490035D01*
X80666076Y-137495983D01*
X80664944Y-137500737D01*
X80561098Y-137950677D01*
X80560281Y-137956970D01*
X80558476Y-137963054D01*
X80557584Y-137967858D01*
X80475798Y-138425835D01*
X80475294Y-138432198D01*
X80473789Y-138438401D01*
X80473139Y-138443245D01*
X80413997Y-138908671D01*
X80413813Y-138915082D01*
X80412617Y-138921384D01*
X80412212Y-138926254D01*
X80376299Y-139398550D01*
X80376440Y-139404984D01*
X80375562Y-139411351D01*
X80375404Y-139416236D01*
X80363297Y-139894812D01*
X80363762Y-139901220D01*
X80363207Y-139907628D01*
X80363297Y-139912514D01*
X80375404Y-140391089D01*
X80376193Y-140397472D01*
X80375963Y-140403900D01*
X80376299Y-140408775D01*
X80412212Y-140881071D01*
X80413321Y-140887392D01*
X80413415Y-140893802D01*
X80413997Y-140898654D01*
X80473139Y-141364081D01*
X80474557Y-141370302D01*
X80474972Y-141376674D01*
X80475798Y-141381491D01*
X80557584Y-141839467D01*
X80559303Y-141845572D01*
X80560032Y-141851878D01*
X80561098Y-141856647D01*
X80664944Y-142306589D01*
X80666954Y-142312564D01*
X80667989Y-142318778D01*
X80669291Y-142323488D01*
X80794612Y-142764807D01*
X80796898Y-142770624D01*
X80798230Y-142776737D01*
X80799764Y-142781377D01*
X80945975Y-143213493D01*
X80948528Y-143219149D01*
X80950146Y-143225137D01*
X80951907Y-143229696D01*
X81118426Y-143652025D01*
X81121231Y-143657503D01*
X81123126Y-143663359D01*
X81125108Y-143667826D01*
X81311350Y-144079780D01*
X81314396Y-144085072D01*
X81316556Y-144090781D01*
X81318753Y-144095147D01*
X81470662Y-144391748D01*
X80697822Y-144673038D01*
X80563495Y-144362341D01*
X80387569Y-143871506D01*
X80240539Y-143368611D01*
X80120981Y-142855463D01*
X80027442Y-142333858D01*
X79958471Y-141805700D01*
X79912576Y-141272853D01*
X79888248Y-140737345D01*
X79883973Y-140201026D01*
X79898171Y-139665891D01*
X79929294Y-139133969D01*
X79975747Y-138607071D01*
X80035919Y-138087236D01*
X80108186Y-137576480D01*
X80190942Y-137076607D01*
X80282540Y-136589672D01*
X80381355Y-136117517D01*
X80485731Y-135662137D01*
X80594004Y-135225523D01*
X80602335Y-135194168D01*
X80866747Y-135346827D01*
X80969199Y-135319375D01*
X81431699Y-134518301D01*
X81414378Y-134508301D01*
X81464378Y-134421699D01*
X81481699Y-134431699D01*
X81944199Y-133630625D01*
X81916747Y-133528173D01*
X81509323Y-133292947D01*
X81458145Y-133263399D01*
X81420268Y-133250542D01*
X81434691Y-133250844D01*
X81521599Y-133235520D01*
X81603876Y-133203607D01*
X81678388Y-133156320D01*
X81742296Y-133095462D01*
X81793166Y-133023349D01*
X81826599Y-132948257D01*
X81862652Y-132983687D01*
X81968714Y-132982761D01*
X82441828Y-132501317D01*
X82427563Y-132487299D01*
X82497654Y-132415973D01*
X82511919Y-132429992D01*
X82525937Y-132415727D01*
X82597263Y-132485818D01*
X82597263Y-132485818D01*
G37*
X82597263Y-132485818D02*
X82583244Y-132500083D01*
X82597509Y-132514101D01*
X82527418Y-132585427D01*
X82513153Y-132571408D01*
X82040039Y-133052852D01*
X82040965Y-133158914D01*
X82608701Y-133716827D01*
X82572310Y-133758838D01*
X82568877Y-133763687D01*
X82564711Y-133767917D01*
X82561664Y-133771738D01*
X82492049Y-133860325D01*
X82133253Y-133653173D01*
X82030801Y-133680625D01*
X81568301Y-134481699D01*
X81585622Y-134491699D01*
X81535622Y-134578301D01*
X81518301Y-134568301D01*
X81055801Y-135369375D01*
X81083253Y-135471827D01*
X81360015Y-135631615D01*
X81318753Y-135712179D01*
X81316513Y-135717859D01*
X81313394Y-135723107D01*
X81311350Y-135727546D01*
X81125108Y-136139500D01*
X81123133Y-136145327D01*
X81120250Y-136150767D01*
X81118426Y-136155301D01*
X80951907Y-136577630D01*
X80950206Y-136583595D01*
X80947574Y-136589215D01*
X80945975Y-136593833D01*
X80799764Y-137025949D01*
X80798347Y-137032042D01*
X80795980Y-137037827D01*
X80794612Y-137042519D01*
X80669291Y-137483838D01*
X80668170Y-137490035D01*
X80666076Y-137495983D01*
X80664944Y-137500737D01*
X80561098Y-137950677D01*
X80560281Y-137956970D01*
X80558476Y-137963054D01*
X80557584Y-137967858D01*
X80475798Y-138425835D01*
X80475294Y-138432198D01*
X80473789Y-138438401D01*
X80473139Y-138443245D01*
X80413997Y-138908671D01*
X80413813Y-138915082D01*
X80412617Y-138921384D01*
X80412212Y-138926254D01*
X80376299Y-139398550D01*
X80376440Y-139404984D01*
X80375562Y-139411351D01*
X80375404Y-139416236D01*
X80363297Y-139894812D01*
X80363762Y-139901220D01*
X80363207Y-139907628D01*
X80363297Y-139912514D01*
X80375404Y-140391089D01*
X80376193Y-140397472D01*
X80375963Y-140403900D01*
X80376299Y-140408775D01*
X80412212Y-140881071D01*
X80413321Y-140887392D01*
X80413415Y-140893802D01*
X80413997Y-140898654D01*
X80473139Y-141364081D01*
X80474557Y-141370302D01*
X80474972Y-141376674D01*
X80475798Y-141381491D01*
X80557584Y-141839467D01*
X80559303Y-141845572D01*
X80560032Y-141851878D01*
X80561098Y-141856647D01*
X80664944Y-142306589D01*
X80666954Y-142312564D01*
X80667989Y-142318778D01*
X80669291Y-142323488D01*
X80794612Y-142764807D01*
X80796898Y-142770624D01*
X80798230Y-142776737D01*
X80799764Y-142781377D01*
X80945975Y-143213493D01*
X80948528Y-143219149D01*
X80950146Y-143225137D01*
X80951907Y-143229696D01*
X81118426Y-143652025D01*
X81121231Y-143657503D01*
X81123126Y-143663359D01*
X81125108Y-143667826D01*
X81311350Y-144079780D01*
X81314396Y-144085072D01*
X81316556Y-144090781D01*
X81318753Y-144095147D01*
X81470662Y-144391748D01*
X80697822Y-144673038D01*
X80563495Y-144362341D01*
X80387569Y-143871506D01*
X80240539Y-143368611D01*
X80120981Y-142855463D01*
X80027442Y-142333858D01*
X79958471Y-141805700D01*
X79912576Y-141272853D01*
X79888248Y-140737345D01*
X79883973Y-140201026D01*
X79898171Y-139665891D01*
X79929294Y-139133969D01*
X79975747Y-138607071D01*
X80035919Y-138087236D01*
X80108186Y-137576480D01*
X80190942Y-137076607D01*
X80282540Y-136589672D01*
X80381355Y-136117517D01*
X80485731Y-135662137D01*
X80594004Y-135225523D01*
X80602335Y-135194168D01*
X80866747Y-135346827D01*
X80969199Y-135319375D01*
X81431699Y-134518301D01*
X81414378Y-134508301D01*
X81464378Y-134421699D01*
X81481699Y-134431699D01*
X81944199Y-133630625D01*
X81916747Y-133528173D01*
X81509323Y-133292947D01*
X81458145Y-133263399D01*
X81420268Y-133250542D01*
X81434691Y-133250844D01*
X81521599Y-133235520D01*
X81603876Y-133203607D01*
X81678388Y-133156320D01*
X81742296Y-133095462D01*
X81793166Y-133023349D01*
X81826599Y-132948257D01*
X81862652Y-132983687D01*
X81968714Y-132982761D01*
X82441828Y-132501317D01*
X82427563Y-132487299D01*
X82497654Y-132415973D01*
X82511919Y-132429992D01*
X82525937Y-132415727D01*
X82597263Y-132485818D01*
M02*
