G04 #@! TF.FileFunction,Soldermask,Top*
%FSLAX46Y46*%
G04 Gerber Fmt 4.6, Leading zero omitted, Abs format (unit mm)*
G04 Created by KiCad (PCBNEW 4.0.7-e2-6376~58~ubuntu14.04.1) date Thu May 17 14:08:47 2018*
%MOMM*%
%LPD*%
G01*
G04 APERTURE LIST*
%ADD10C,0.100000*%
%ADD11C,0.300000*%
%ADD12R,0.250000X1.200000*%
%ADD13R,1.250000X1.500000*%
%ADD14R,0.800000X1.700000*%
%ADD15C,1.200000*%
%ADD16C,5.800000*%
%ADD17C,1.000000*%
%ADD18C,0.600000*%
G04 APERTURE END LIST*
D10*
D11*
X98600000Y-132800000D03*
D10*
G36*
X96248777Y-133020211D02*
X98031903Y-131267938D01*
X98732813Y-131981189D01*
X96949687Y-133733462D01*
X96248777Y-133020211D01*
X96248777Y-133020211D01*
G37*
G36*
X99416266Y-134837019D02*
X98333734Y-135462019D01*
X97583734Y-134162981D01*
X98666266Y-133537981D01*
X99416266Y-134837019D01*
X99416266Y-134837019D01*
G37*
G36*
X98169207Y-144581468D02*
X99343823Y-145008993D01*
X98830793Y-146418532D01*
X97656177Y-145991007D01*
X98169207Y-144581468D01*
X98169207Y-144581468D01*
G37*
G36*
X83053644Y-133733462D02*
X81270518Y-131981189D01*
X81971428Y-131267938D01*
X83754554Y-133020211D01*
X83053644Y-133733462D01*
X83053644Y-133733462D01*
G37*
G36*
X84609949Y-132327526D02*
X83266700Y-130219047D01*
X84110091Y-129681748D01*
X85453340Y-131790227D01*
X84609949Y-132327526D01*
X84609949Y-132327526D01*
G37*
G36*
X86442631Y-131307716D02*
X85608114Y-128951113D01*
X86550755Y-128617306D01*
X87385272Y-130973909D01*
X86442631Y-131307716D01*
X86442631Y-131307716D01*
G37*
G36*
X88457749Y-130726309D02*
X88174741Y-128242380D01*
X89168313Y-128129177D01*
X89451321Y-130613106D01*
X88457749Y-130726309D01*
X88457749Y-130726309D01*
G37*
G36*
X90552009Y-130613106D02*
X90835017Y-128129177D01*
X91828589Y-128242380D01*
X91545581Y-130726309D01*
X90552009Y-130613106D01*
X90552009Y-130613106D01*
G37*
G36*
X92618058Y-130973911D02*
X93452575Y-128617308D01*
X94395216Y-128951115D01*
X93560699Y-131307718D01*
X92618058Y-130973911D01*
X92618058Y-130973911D01*
G37*
G36*
X94549991Y-131790227D02*
X95893240Y-129681748D01*
X96736631Y-130219047D01*
X95393382Y-132327526D01*
X94549991Y-131790227D01*
X94549991Y-131790227D01*
G37*
D12*
X89000000Y-150700000D03*
X89500000Y-150700000D03*
X90000000Y-150700000D03*
X90500000Y-150700000D03*
X91000000Y-150700000D03*
D13*
X86600000Y-150400000D03*
X93400000Y-150400000D03*
D14*
X64300000Y-150600000D03*
X67700000Y-150600000D03*
D10*
G36*
X80656177Y-145008993D02*
X81830793Y-144581468D01*
X82343823Y-145991007D01*
X81169207Y-146418532D01*
X80656177Y-145008993D01*
X80656177Y-145008993D01*
G37*
G36*
X81666266Y-135462019D02*
X80583734Y-134837019D01*
X81333734Y-133537981D01*
X82416266Y-134162981D01*
X81666266Y-135462019D01*
X81666266Y-135462019D01*
G37*
D15*
X69810000Y-150365000D03*
X62190000Y-150365000D03*
D16*
X82600000Y-149800000D03*
X97400000Y-149800000D03*
D17*
X97400000Y-149800000D03*
X58600000Y-149800000D03*
D11*
X57200000Y-146800000D03*
D18*
X57200000Y-146800000D03*
D11*
X58900000Y-146500000D03*
D18*
X58900000Y-146500000D03*
D11*
X73100000Y-146500000D03*
D18*
X73100000Y-146500000D03*
D11*
X74800000Y-146800000D03*
D18*
X74800000Y-146800000D03*
D11*
X81200000Y-146800000D03*
X82900000Y-146500000D03*
X98800000Y-146800000D03*
X97100000Y-146500000D03*
X57500000Y-132800000D03*
D18*
X57500000Y-132800000D03*
D11*
X74600000Y-132800000D03*
D18*
X74600000Y-132800000D03*
D11*
X81400000Y-132800000D03*
X61500000Y-151600000D03*
D18*
X61500000Y-151600000D03*
D11*
X70500000Y-151600000D03*
D18*
X70500000Y-151600000D03*
D11*
X85500000Y-151600000D03*
X94500000Y-151600000D03*
M02*
